<?xml version="1.0" encoding="UTF-8"?>
<svg version="1.1" xmlns="http://www.w3.org/2000/svg" width="184" height="254">
<path d="M0 0 C60.72 0 121.44 0 184 0 C184 83.82 184 167.64 184 254 C123.28 254 62.56 254 0 254 C0 170.18 0 86.36 0 0 Z " fill="#FEFDFD" transform="translate(0,0)"/>
<path d="M0 0 C1.20156738 -0.00852997 2.40313477 -0.01705994 3.64111328 -0.02584839 C4.97453321 -0.02514935 6.30795304 -0.02422628 7.64137268 -0.02310181 C9.04417784 -0.02908544 10.4469797 -0.0358906 11.84977722 -0.04345703 C15.66174762 -0.06114004 19.47362826 -0.06581334 23.28563571 -0.0670886 C26.46663904 -0.06898679 29.64762141 -0.07634331 32.82861668 -0.08343279 C40.33245629 -0.0997227 47.83624789 -0.10460116 55.34010315 -0.10317993 C63.08425405 -0.10197796 70.8281265 -0.12308922 78.57220691 -0.15466726 C85.21857276 -0.1808047 91.86484752 -0.19154831 98.51126438 -0.19026911 C102.48196863 -0.18975878 106.45242541 -0.19548126 110.42307854 -0.21662521 C114.15699591 -0.23596553 117.89042865 -0.23616144 121.62436295 -0.22159195 C123.64893178 -0.21849826 125.67350044 -0.23520918 127.69799805 -0.25247192 C129.50457886 -0.23988846 129.50457886 -0.23988846 131.34765625 -0.22705078 C132.91807757 -0.22868508 132.91807757 -0.22868508 134.52022457 -0.2303524 C137.92896326 0.39413614 139.12209107 1.57726847 141.23731995 4.26742554 C141.51535034 6.32273865 141.51535034 6.32273865 141.17604065 8.58798218 C141.04742645 9.47059723 140.91881226 10.35321228 140.78630066 11.26257324 C139.6936296 17.24332094 138.50105311 23.19590088 137.2177887 29.13851929 C136.91489432 30.55193097 136.61202303 31.96534761 136.30917358 33.37876892 C135.67710096 36.32037658 135.04000151 39.26084789 134.40016174 42.20077515 C133.58186579 45.9659186 132.78376366 49.73504961 131.99015331 53.50546169 C131.37373871 56.41686646 130.74308014 59.32505012 130.10843849 62.23253059 C129.80775267 63.62165704 129.51235759 65.01193986 129.22241783 66.40334892 C128.81692937 68.34229478 128.38930881 70.27657237 127.96070862 72.21054077 C127.60549385 73.86073463 127.60549385 73.86073463 127.24310303 75.54426575 C126.0576992 78.75374909 125.12417041 79.5179602 122.23731995 81.26742554 C119.991539 81.64494896 119.991539 81.64494896 117.49330139 81.64837646 C116.54278397 81.65683594 115.59226654 81.66529541 114.61294556 81.67401123 C113.57697739 81.66793854 112.54100922 81.66186584 111.47364807 81.65560913 C110.37733566 81.66086609 109.28102325 81.66612305 108.15148926 81.67153931 C104.52370502 81.6847547 100.89635873 81.67599543 97.26856995 81.66586304 C94.75038061 81.66788332 92.23219185 81.67079437 89.71400452 81.67456055 C84.43478416 81.67898599 79.15567794 81.67283131 73.8764801 81.65853882 C67.77565367 81.64221251 61.67512802 81.64750115 55.57430887 81.66401803 C49.70205149 81.67927895 43.82990832 81.67765533 37.9576416 81.66887283 C35.46013344 81.66686914 32.96261763 81.66933599 30.46511841 81.67631149 C26.97686826 81.68391564 23.48919865 81.67233553 20.00099182 81.65560913 C18.44703957 81.66471817 18.44703957 81.66471817 16.86169434 81.67401123 C15.4359182 81.66132202 15.4359182 81.66132202 13.9813385 81.64837646 C13.15692009 81.64724539 12.33250168 81.64611431 11.48310089 81.64494896 C8.66908303 81.17190298 7.30603043 80.20747021 5.23731995 78.26742554 C4.18011475 75.33425903 4.18011475 75.33425903 3.39039612 71.70394897 C3.24190216 71.04175858 3.0934082 70.37956818 2.94041443 69.6973114 C2.45446512 67.51029439 1.991874 65.3190785 1.5302887 63.12680054 C1.19835556 61.60063201 0.86535733 60.07469479 0.53134155 58.54898071 C-0.16530452 55.3499643 -0.85073788 52.14881004 -1.52806091 48.94564819 C-2.39444096 44.85155588 -3.28551685 40.7633351 -4.1847887 36.67635727 C-4.87587029 33.52462072 -5.55504585 30.37041087 -6.23058128 27.21530914 C-6.55459878 25.70759835 -6.88194087 24.20059791 -7.21273232 22.69435883 C-7.67460492 20.58139271 -8.12064995 18.46566393 -8.56272888 16.34848022 C-8.81935806 15.14729553 -9.07598724 13.94611084 -9.34039307 12.70852661 C-9.80334682 8.93604321 -9.64793117 5.9621988 -8.76268005 2.26742554 C-5.3214832 -0.0267057 -4.0515762 0.01297535 0 0 Z " fill="#FEFEFE" transform="translate(21.762680053710938,139.73257446289063)"/>
<path d="M0 0 C0.82047318 0.34027725 1.64094635 0.6805545 2.48628235 1.03114319 C3.35730087 1.39783615 4.2283194 1.76452911 5.12573242 2.14233398 C6.02869553 2.5182518 6.93165863 2.89416962 7.86198425 3.28147888 C10.73687192 4.4794978 13.60904871 5.68386819 16.48120117 6.88842773 C18.4334996 7.70330153 20.38597165 8.51775949 22.33862305 9.33178711 C27.11734152 11.32501986 31.89363926 13.32395194 36.66870117 15.32592773 C35.15950947 18.56707083 34.14709046 19.9725113 30.97338867 21.68530273 C30.25795898 22.0784668 29.5425293 22.47163086 28.80541992 22.87670898 C28.05905273 23.27245117 27.31268555 23.66819336 26.54370117 24.07592773 C25.78959961 24.48713867 25.03549805 24.89834961 24.25854492 25.32202148 C22.40064916 26.3332812 20.53536285 27.33094178 18.66870117 28.32592773 C18.51284235 31.59896296 18.58492187 34.07928148 19.64526367 37.20092773 C23.52005361 49.03234739 20.42034833 63.24545693 15.34838867 74.16967773 C11.13735743 81.80936283 5.24949797 88.23919103 -3.26879883 90.88452148 C-10.15072443 92.35735784 -15.17631968 91.67689038 -21.19848633 87.93139648 C-31.33061368 80.30446545 -36.42494224 68.61299166 -38.33129883 56.32592773 C-38.8444422 48.87733097 -38.59800564 42.40938653 -36.33129883 35.32592773 C-35.74009525 31.24684824 -35.74009525 31.24684824 -36.33129883 27.32592773 C-38.50441266 25.1016464 -41.05534563 23.86639231 -43.83129883 22.51342773 C-46.40099495 21.19153901 -48.85239498 19.82212327 -51.33129883 18.32592773 C-51.33129883 17.33592773 -51.33129883 16.34592773 -51.33129883 15.32592773 C-45.78972535 12.90387215 -40.24489526 10.48960935 -34.69458008 8.08764648 C-30.70350665 6.36045528 -26.72223831 4.61384996 -22.74926758 2.84545898 C-21.06846152 2.1093627 -19.38748161 1.37366322 -17.70629883 0.63842773 C-16.9324585 0.28780273 -16.15861816 -0.06282227 -15.36132812 -0.42407227 C-14.63727783 -0.73731445 -13.91322754 -1.05055664 -13.16723633 -1.37329102 C-12.54381348 -1.65003662 -11.92039063 -1.92678223 -11.27807617 -2.21191406 C-7.36532382 -3.14078793 -3.6019563 -1.50546161 0 0 Z " fill="#E54E5F" transform="translate(96.331298828125,30.674072265625)"/>
<path d="M0 0 C0.54269531 1.10859375 1.08539063 2.2171875 1.64453125 3.359375 C2.36697274 4.82302269 3.08964092 6.2865585 3.8125 7.75 C4.16892578 8.47960937 4.52535156 9.20921875 4.89257812 9.9609375 C7.43119408 15.32661224 7.43119408 15.32661224 11 20 C13.0316566 20.68850829 13.0316566 20.68850829 15.1875 20.75 C16.445625 20.8325 17.70375 20.915 19 21 C17.87302957 16.03088634 17.87302957 16.03088634 15 12 C15 11.01 15 10.02 15 9 C20.28 9 25.56 9 31 9 C30.34 10.65 29.68 12.3 29 14 C28.31320058 16.32748694 27.64238957 18.65986656 27 21 C32.25564578 21.07115173 32.25564578 21.07115173 36.65625 18.57421875 C41.02736985 12.95918979 43.98690784 6.41083438 47 0 C60.21120389 1.14880034 68.56539886 7.75287049 76.96875 17.51953125 C78 19 78 19 78 21 C79.09699219 20.96519531 80.19398438 20.93039063 81.32421875 20.89453125 C82.77863045 20.86638135 84.2330588 20.83908248 85.6875 20.8125 C86.40873047 20.78736328 87.12996094 20.76222656 87.87304688 20.73632812 C92.46146874 20.67347303 95.36934474 21.13296248 99 24 C101.40743814 28.81487628 99.81058157 34.77545014 98.74658203 39.8215332 C98.54657593 40.78385109 98.54657593 40.78385109 98.3425293 41.76560974 C97.90472733 43.86223272 97.45668662 45.95650316 97.0078125 48.05078125 C96.69831793 49.51563668 96.38923216 50.98057855 96.08053589 52.44560242 C95.43446824 55.50355985 94.78326718 58.56036655 94.12841797 61.61645508 C93.28894339 65.536352 92.46275892 69.45891314 91.64038277 73.38242817 C91.00582323 76.40239098 90.36414741 79.42080718 89.72030258 82.43880272 C89.41265938 83.88524139 89.10728197 85.33216388 88.80420303 86.77956581 C88.38079012 88.79648842 87.94781179 90.81112006 87.51220703 92.82543945 C87.26793976 93.97236771 87.02367249 95.11929596 86.77200317 96.30097961 C86 99 86 99 84 101 C84.66900489 93.24349695 86.25506281 85.82740925 87.9765625 78.2421875 C88.26975203 76.92677437 88.56216747 75.6111885 88.85385132 74.29544067 C90.08384513 68.75067704 91.32259617 63.20793905 92.57617188 57.66845703 C93.34633173 54.26276811 94.10456158 50.85460155 94.85544968 47.44461441 C95.28041008 45.53114672 95.71851756 43.62061398 96.15689087 41.71017456 C98.07054181 33.35023259 98.07054181 33.35023259 97 25 C94.34201565 23.67100783 92.32853735 23.86800367 89.35084534 23.85955811 C88.14920746 23.85384796 86.94756958 23.84813782 85.70951843 23.84225464 C84.37088023 23.84100924 83.03224191 23.83988415 81.69360352 23.83886719 C80.28932565 23.83423991 78.88504905 23.82921537 77.48077393 23.82382202 C73.66056531 23.81068885 69.84037428 23.80425149 66.02014661 23.79981136 C63.63510669 23.79688261 61.2500716 23.79277823 58.8650341 23.78830719 C51.40755121 23.77463095 43.95007933 23.76496445 36.49258476 23.7611053 C27.87485857 23.75662158 19.25729076 23.73905978 10.63961273 23.7101047 C3.98395096 23.68851557 -2.67166616 23.67840253 -9.3273626 23.67706418 C-13.30527806 23.67601432 -17.28304468 23.67006813 -21.26092339 23.65224457 C-25.00131414 23.63581117 -28.74144339 23.6335851 -32.4818573 23.64238358 C-33.85611736 23.64315646 -35.23039121 23.63877828 -36.60461617 23.62892532 C-38.47765571 23.61628141 -40.35079949 23.62384669 -42.22386169 23.63250732 C-43.79761393 23.63030748 -43.79761393 23.63030748 -45.40315914 23.6280632 C-48.03374392 23.79117781 -48.03374392 23.79117781 -49.84990692 25.39805698 C-51.85551527 28.19163113 -50.94639333 30.77089049 -50.50930786 34.03158569 C-49.54809947 39.63382541 -48.32318047 45.16647332 -47.05859375 50.70703125 C-46.61991493 52.66803472 -46.18124191 54.6290395 -45.74291325 56.59012127 C-44.97935604 59.9986907 -44.2080665 63.40550962 -43.4375 66.8125 C-42.51318825 70.90148601 -41.59048637 74.99080449 -40.67579651 79.08195496 C-40.10767198 81.62060683 -39.53471889 84.15818405 -38.95640564 86.6945343 C-38.69936356 87.8431041 -38.44232147 88.99167389 -38.17749023 90.17504883 C-37.94956284 91.18191238 -37.72163544 92.18877594 -37.48680115 93.22615051 C-37.02032925 95.88416157 -36.90726414 98.30846797 -37 101 C-39.61568603 98.38431397 -39.74271025 96.4385211 -40.51220703 92.82543945 C-40.64904907 92.19265579 -40.78589111 91.55987213 -40.92687988 90.90791321 C-41.37810949 88.81124468 -41.81826162 86.71242677 -42.2578125 84.61328125 C-42.56838367 83.15307622 -42.8794152 81.69296902 -43.19088745 80.23295593 C-43.8429202 77.16811464 -44.48951934 74.10218996 -45.13232422 71.03540039 C-45.95401189 67.11718251 -46.78869927 63.20187412 -47.62750435 59.28728962 C-48.27269727 56.26938723 -48.9110271 53.25006441 -49.54732895 50.23027611 C-49.852255 48.78704376 -50.15924669 47.34424618 -50.4683876 45.90191078 C-50.90138898 43.87650588 -51.32512143 41.84936668 -51.74658203 39.8215332 C-51.98925812 38.67062698 -52.2319342 37.51972076 -52.48196411 36.3339386 C-53.88440376 27.30821705 -53.88440376 27.30821705 -51.02734375 23.08203125 C-47.01588964 20.32318604 -44.2883689 20.53111243 -39.5625 20.6875 C-33.84655154 20.74640944 -33.84655154 20.74640944 -28.8359375 18.41796875 C-27.40286633 16.39191513 -27.40286633 16.39191513 -26.22265625 14.19140625 C-21.41452478 5.57363706 -9.74518217 -0.58791775 0 0 Z " fill="#ED8A95" transform="translate(64,117)"/>
<path d="M0 0 C5.84703153 0.97450526 9.76579484 2.75826546 14.7890625 5.56054688 C18.7533083 7.66928115 21.53265285 8.63573786 26 8 C28.6858319 7.02343095 31.20495461 5.79502309 33.75 4.5 C40.79054054 1 40.79054054 1 43 1 C43.99 3.97 44.98 6.94 46 10 C46.99 9.34 47.98 8.68 49 8 C48.7466446 19.49312208 45.50779012 31.78290886 37 40 C31.56744088 44.33754231 26.49653348 45.7863716 19.5703125 45.41015625 C12.83822242 44.33588656 8.82154767 40.33348341 4.5703125 35.21484375 C2.08436625 31.70854642 0.48531561 28.01557688 -1 24 C-1.61875 22.39125 -1.61875 22.39125 -2.25 20.75 C-2.99237953 18.02794174 -3.1650373 15.80563409 -3 13 C-2.01 13 -1.02 13 0 13 C0 8.71 0 4.42 0 0 Z " fill="#FEFCFC" transform="translate(65,72)"/>
<path d="M0 0 C16.54147069 -0.02332889 33.08293606 -0.04097912 49.62441921 -0.05181217 C57.30438727 -0.05697515 64.98434513 -0.06401789 72.66430664 -0.07543945 C79.35577989 -0.08538623 86.04724576 -0.09185341 92.7387262 -0.09408849 C96.28395601 -0.09539561 99.82916468 -0.09848153 103.37438774 -0.10573006 C107.32568645 -0.1137438 111.2769642 -0.11399114 115.22827148 -0.11352539 C116.41222 -0.11712067 117.59616852 -0.12071594 118.81599426 -0.12442017 C119.88596649 -0.1230455 120.95593872 -0.12167084 122.05833435 -0.12025452 C122.99395423 -0.12117631 123.92957411 -0.1220981 124.8935461 -0.12304783 C127 0 127 0 128 1 C128.04063832 2.66617115 128.042721 4.33388095 128 6 C125.50330697 7.24834651 123.82179846 7.128608 121.02746582 7.13371277 C119.45002342 7.14011024 119.45002342 7.14011024 117.8407135 7.14663696 C116.68220383 7.14618378 115.52369415 7.14573059 114.33007812 7.14526367 C113.11380234 7.14862228 111.89752655 7.1519809 110.64439392 7.15544128 C107.30355649 7.16332859 103.96278119 7.1666197 100.62193871 7.16725707 C97.83597113 7.16820543 95.05000956 7.17188278 92.26404428 7.17542917 C85.69376733 7.18357637 79.12350408 7.18601312 72.55322266 7.18530273 C65.76741479 7.1847015 58.9816863 7.19526173 52.19589853 7.2110464 C46.37591377 7.22410384 40.55595502 7.22948741 34.73595572 7.22884732 C31.25721543 7.22859185 27.77854569 7.23147 24.29981995 7.24202538 C20.4231554 7.25346689 16.54660059 7.24897059 12.66992188 7.24291992 C11.5114122 7.24853943 10.35290253 7.25415894 9.1592865 7.25994873 C8.10765823 7.25575424 7.05602997 7.25155975 5.97253418 7.24723816 C4.59650654 7.24805531 4.59650654 7.24805531 3.19268036 7.24888897 C1 7 1 7 -1 5 C-0.625 2.375 -0.625 2.375 0 0 Z " fill="#E75D6D" transform="translate(24,224)"/>
<path d="M0 0 C13.21120389 1.14880034 21.56539886 7.75287049 29.96875 17.51953125 C31 19 31 19 31 21 C17.14 21 3.28 21 -11 21 C-8.78643989 16.57287977 -6.32550189 12.31798465 -3.83398438 8.04492188 C-2.29671589 5.38240695 -0.97526271 2.92578814 0 0 Z " fill="#E54D5F" transform="translate(111,117)"/>
<path d="M0 0 C1.294174 2.56126064 2.58540784 5.12393358 3.875 7.6875 C4.23980469 8.40873047 4.60460937 9.12996094 4.98046875 9.87304688 C5.33496094 10.57880859 5.68945312 11.28457031 6.0546875 12.01171875 C6.54171143 12.97791138 6.54171143 12.97791138 7.03857422 13.96362305 C8.12500626 16.26477329 9.05491274 18.63728184 10 21 C-3.2 21 -16.4 21 -30 21 C-28.06383539 13.25534156 -21.85317461 8.37008532 -15.26953125 4.25390625 C-10.26989368 1.49162801 -5.78410188 -0.17950661 0 0 Z " fill="#E54D5F" transform="translate(64,117)"/>
<path d="M0 0 C5.40612924 -0.08130275 10.8105468 -0.10315934 16.21722412 -0.09069824 C19.0205816 -0.08527255 21.82378316 -0.09071614 24.62713623 -0.0970459 C26.43768345 -0.09638602 28.24823058 -0.09510672 30.05877686 -0.09313965 C30.88285538 -0.09516388 31.7069339 -0.09718811 32.5559845 -0.09927368 C37.59878962 -0.07903457 42.43732726 0.32068949 47.42987061 1.03967285 C47.42987061 1.36967285 47.42987061 1.69967285 47.42987061 2.03967285 C43.30385744 2.81438713 39.39250396 3.17170712 35.19671631 3.1973877 C33.3800219 3.21278091 33.3800219 3.21278091 31.52662659 3.22848511 C30.23270493 3.23578644 28.93878326 3.24308777 27.60565186 3.25061035 C26.25377089 3.26358666 24.90189777 3.27740414 23.55003357 3.29202271 C17.82962862 3.35337788 12.10925432 3.40780662 6.38861084 3.44104004 C2.88019283 3.46196323 -0.62783253 3.4972302 -4.13602638 3.54179764 C-6.11850818 3.56283613 -8.10113776 3.56800666 -10.08372498 3.57296753 C-11.2853981 3.589534 -12.48707123 3.60610046 -13.72515869 3.62316895 C-15.31350777 3.63529922 -15.31350777 3.63529922 -16.9339447 3.64767456 C-19.57288298 3.84767843 -19.57288298 3.84767843 -21.44348145 5.29502869 C-24.52955954 10.07390229 -21.35252776 18.33220355 -20.26324463 23.51159668 C-19.72401698 25.92456032 -19.1788979 28.33621292 -18.62872314 30.7467041 C-18.19004433 32.70770757 -17.7513713 34.66871235 -17.31304264 36.62979412 C-16.54948543 40.03836356 -15.7781959 43.44518247 -15.00762939 46.85217285 C-14.08331764 50.94115886 -13.16061576 55.03047735 -12.2459259 59.12162781 C-11.67780137 61.66027968 -11.10484828 64.1978569 -10.52653503 66.73420715 C-10.26949295 67.88277695 -10.01245087 69.03134674 -9.74761963 70.21472168 C-9.51969223 71.22158524 -9.29176483 72.22844879 -9.05693054 73.26582336 C-8.59045864 75.92383443 -8.47739353 78.34814083 -8.57012939 81.03967285 C-11.18581543 78.42398682 -11.31283964 76.47819395 -12.08233643 72.8651123 C-12.21917847 72.23232864 -12.35602051 71.59954498 -12.49700928 70.94758606 C-12.94823888 68.85091753 -13.38839102 66.75209962 -13.82794189 64.6529541 C-14.13851307 63.19274907 -14.44954459 61.73264188 -14.76101685 60.27262878 C-15.4130496 57.20778749 -16.05964873 54.14186281 -16.70245361 51.07507324 C-17.52414129 47.15685537 -18.35882867 43.24154697 -19.19763374 39.32696247 C-19.84282666 36.30906009 -20.4811565 33.28973726 -21.11745834 30.26994896 C-21.42238439 28.82671662 -21.72937609 27.38391903 -22.038517 25.94158363 C-22.47151838 23.91617873 -22.89525083 21.88903954 -23.31671143 19.86120605 C-23.55938751 18.71029984 -23.8020636 17.55939362 -24.05209351 16.37361145 C-25.4612149 7.30488802 -25.4612149 7.30488802 -22.53668213 3.15246582 C-18.99371834 0.62915016 -16.31344149 0.26705655 -12.10528564 0.23498535 C-11.37012222 0.21098663 -10.6349588 0.18698792 -9.8775177 0.16226196 C-6.58542816 0.06834603 -3.29294498 0.05083033 0 0 Z " fill="#EE8B96" transform="translate(35.57012939453125,136.9603271484375)"/>
<path d="M0 0 C1.98 0.495 1.98 0.495 4 1 C4.04951788 5.4840341 4.08577526 9.96792239 4.10986328 14.45214844 C4.11990744 15.97691623 4.13354531 17.50166484 4.15087891 19.02636719 C4.17519738 21.22075138 4.18649889 23.41488042 4.1953125 25.609375 C4.20578613 26.92905273 4.21625977 28.24873047 4.22705078 29.60839844 C4.0179275 32.73220559 3.66605136 34.40580238 2 37 C-0.94549981 32.58175029 -1.08173971 29.97877292 -0.87890625 24.8046875 C-0.85529526 24.09724396 -0.83168427 23.38980042 -0.80735779 22.66091919 C-0.73071166 20.39874245 -0.64669188 18.13690727 -0.5625 15.875 C-0.50928023 14.3424647 -0.45653982 12.80991266 -0.40429688 11.27734375 C-0.27509533 7.51801239 -0.13927963 3.75897092 0 0 Z " fill="#E75D6D" transform="translate(46,53)"/>
<path d="M0 0 C5.28 0 10.56 0 16 0 C14 5 14 5 13 6 C12.63239269 8.32817964 12.29758419 10.6618385 12 13 C9.36 13 6.72 13 4 13 C3.896875 11.906875 3.79375 10.81375 3.6875 9.6875 C2.99088659 5.951119 2.68320706 5.33322353 0 3 C0 2.01 0 1.02 0 0 Z " fill="#E65566" transform="translate(79,126)"/>
<path d="M0 0 C3.53571429 0.53571429 3.53571429 0.53571429 5 2 C5.125 4.5 5.125 4.5 5 7 C4 8 4 8 1.5 8.125 C-1 8 -1 8 -2 7 C-2.1875 4.5625 -2.1875 4.5625 -2 2 C-1.34 1.34 -0.68 0.68 0 0 Z " fill="#E65667" transform="translate(86,177)"/>
</svg>
