<?xml version="1.0" encoding="UTF-8"?>
<svg version="1.1" xmlns="http://www.w3.org/2000/svg" width="638" height="670">
<path d="M0 0 C210.54 0 421.08 0 638 0 C638 221.1 638 442.2 638 670 C427.46 670 216.92 670 0 670 C0 448.9 0 227.8 0 0 Z " fill="#FEFEFE" transform="translate(0,0)"/>
<path d="M0 0 C210.54 0 421.08 0 638 0 C638 221.1 638 442.2 638 670 C427.46 670 216.92 670 0 670 C0 448.9 0 227.8 0 0 Z M327 40 C325.515 43.465 325.515 43.465 324 47 C320.51948002 49.84753271 317.78382509 50.37977529 313.3515625 50.44140625 C312.27044189 50.46662354 311.18932129 50.49184082 310.07543945 50.51782227 C308.36747192 50.53993774 308.36747192 50.53993774 306.625 50.5625 C297.96880538 50.77260472 289.60274551 51.1945196 281.05078125 52.59765625 C272.22420103 53.76172509 272.22420103 53.76172509 268.1875 51.25 C266.19435122 49.19990411 265.03653214 47.63844545 264 45 C259.12689995 45.64598366 254.36868161 46.50971736 249.5625 47.5625 C248.32628906 47.83191406 247.09007812 48.10132813 245.81640625 48.37890625 C244.88699219 48.58386719 243.95757812 48.78882813 243 49 C242.89042969 49.61488281 242.78085938 50.22976562 242.66796875 50.86328125 C242.50941406 51.67152344 242.35085937 52.47976562 242.1875 53.3125 C241.96126953 54.51326172 241.96126953 54.51326172 241.73046875 55.73828125 C240.87971204 58.37244241 240.11207716 59.23553493 238 61 C235.63427734 62.05566406 235.63427734 62.05566406 232.8359375 63.015625 C231.28797485 63.5571521 231.28797485 63.5571521 229.70874023 64.10961914 C228.60860596 64.48594482 227.50847168 64.86227051 226.375 65.25 C217.93349657 68.19104766 209.59850581 71.21328454 201.47998047 74.96777344 C196.70124155 77.06906289 193.12318273 77.43601555 188 77 C186.62804426 75.70644173 185.28817344 74.37701298 184 73 C179.2121072 73.28164075 175.29100488 75.78888342 171.1875 78.0625 C170.14819336 78.62807617 170.14819336 78.62807617 169.08789062 79.20507812 C167.38871015 80.13083852 165.69390575 81.06462312 164 82 C164.08701172 82.97839844 164.08701172 82.97839844 164.17578125 83.9765625 C164.22089844 84.85054687 164.26601562 85.72453125 164.3125 86.625 C164.37050781 87.48351562 164.42851562 88.34203125 164.48828125 89.2265625 C163.5347077 94.64286029 159.55438386 97.73753687 155.28515625 100.7890625 C153.88185462 101.7406733 152.47409842 102.68574045 151.0625 103.625 C143.880587 108.53303045 137.26719852 113.84005504 130.7578125 119.6015625 C125.70480313 123.99610606 125.70480313 123.99610606 122.87890625 124.01171875 C121.73228516 123.85123047 121.73228516 123.85123047 120.5625 123.6875 C119.41974609 123.53861328 119.41974609 123.53861328 118.25390625 123.38671875 C116 123 116 123 114.07495117 122.29052734 C111.943479 121.75643902 111.943479 121.75643902 110.26074219 123.17163086 C109.69516602 123.76339111 109.12958984 124.35515137 108.546875 124.96484375 C107.61875 125.91713867 107.61875 125.91713867 106.671875 126.88867188 C105.72054687 127.9028418 105.72054687 127.9028418 104.75 128.9375 C104.1003125 129.60974609 103.450625 130.28199219 102.78125 130.97460938 C101.17575886 132.63912593 99.58303096 134.31415428 98 136 C98.48243164 136.92570801 98.48243164 136.92570801 98.97460938 137.87011719 C100.7608533 141.58040099 100.68430403 144.98939365 100 149 C98.84082031 150.94799805 98.84082031 150.94799805 97.328125 152.82421875 C96.78285156 153.51467285 96.23757812 154.20512695 95.67578125 154.91650391 C95.12277344 155.60405762 94.56976563 156.29161133 94 157 C93.0427795 158.2481719 92.0895211 159.49939425 91.140625 160.75390625 C90.66947266 161.37378418 90.19832031 161.99366211 89.71289062 162.63232422 C84.62019807 169.35175468 79.76088237 176.14527049 75.29785156 183.30297852 C71.70950372 188.90727797 71.70950372 188.90727797 68 190 C65.640625 190.1953125 65.640625 190.1953125 63.25 190.125 C62.45078125 190.10695312 61.6515625 190.08890625 60.828125 190.0703125 C60.22484375 190.04710937 59.6215625 190.02390625 59 190 C57.70425129 192.22687976 56.41332692 194.45633175 55.125 196.6875 C54.76019531 197.31333984 54.39539062 197.93917969 54.01953125 198.58398438 C52.06258803 201.98194942 50.34392261 205.30067619 49 209 C49.845625 209.804375 50.69125 210.60875 51.5625 211.4375 C53.95764765 214.3571943 54.00127429 214.9073411 53.9453125 218.9765625 C53.07721847 224.99816192 50.67978746 230.3732382 48.3125 235.9375 C44.78953761 244.42489361 41.51690771 252.8833175 38.88989258 261.69311523 C37.30988738 266.79340842 37.30988738 266.79340842 34 269 C31.67612053 269.39387788 29.34206251 269.73486085 27 270 C26.32488828 272.70647467 25.65972659 275.41477185 25 278.125 C24.80921875 278.88554687 24.6184375 279.64609375 24.421875 280.4296875 C23.39859271 284.66899986 22.52857758 288.60903687 23 293 C25.35774595 294.68134288 25.35774595 294.68134288 28 296 C30.83583227 299.74667906 30.06274721 304.0063985 29.75 308.4375 C29.66939331 309.71282593 29.66939331 309.71282593 29.5871582 311.01391602 C29.46484501 312.92621947 29.33800992 314.83823713 29.20751953 316.75 C28.97680433 320.36327141 28.79819377 323.97746717 28.62109375 327.59375 C28.47757676 330.2083892 28.33305064 332.82297322 28.1875 335.4375 C28.12981445 336.69941162 28.07212891 337.96132324 28.01269531 339.26147461 C27.94018555 340.45264893 27.86767578 341.64382324 27.79296875 342.87109375 C27.70825317 344.46328735 27.70825317 344.46328735 27.62182617 346.08764648 C26.86071442 349.65235088 25.51288725 351.3963447 23 354 C20.25 355.3125 20.25 355.3125 18 356 C17.87113817 363.40239645 18.20274098 370.63959083 19 378 C19.62648438 378.25394531 20.25296875 378.50789063 20.8984375 378.76953125 C22.12433594 379.28580078 22.12433594 379.28580078 23.375 379.8125 C24.18710937 380.14894531 24.99921875 380.48539062 25.8359375 380.83203125 C28 382 28 382 30 385 C30.53799391 387.27482747 30.99348056 389.56954897 31.40234375 391.87109375 C31.5255751 392.54866226 31.64880646 393.22623077 31.77577209 393.92433167 C32.16964599 396.09425496 32.55426506 398.26567455 32.9375 400.4375 C33.44155941 403.27046187 33.95064834 406.10245413 34.46484375 408.93359375 C34.65184341 409.96944107 34.65184341 409.96944107 34.84262085 411.0262146 C35.80085575 416.21526037 37.02754857 421.29197778 38.45141602 426.37133789 C39.22223231 430.06487552 39.51771117 433.53315169 38.25 437.125 C36.74813407 439.37779889 34.93004203 441.10918647 33 443 C33.97758001 445.79223159 34.95698923 448.58379772 35.9375 451.375 C36.21529297 452.1690625 36.49308594 452.963125 36.77929688 453.78125 C37.04677734 454.54179687 37.31425781 455.30234375 37.58984375 456.0859375 C37.83597412 456.7876709 38.08210449 457.4894043 38.33569336 458.21240234 C38.98767764 460.06505095 38.98767764 460.06505095 40 462 C41.72425802 462.21149332 43.45525946 462.36908843 45.1875 462.5 C50.40328028 463.40066309 50.40328028 463.40066309 52.78125 465.7890625 C54.38806022 468.45815281 55.70284179 471.16664088 57 474 C57.90751715 475.84183208 58.83027165 477.67559938 59.75317383 479.50976562 C60.42255521 480.84623317 61.08507215 482.18615908 61.7409668 483.52929688 C63.6238858 487.36601914 65.60438387 491.1143656 67.734375 494.8203125 C68.42321777 496.02204102 68.42321777 496.02204102 69.12597656 497.24804688 C70.02313332 498.80005793 70.93091191 500.34599071 71.85058594 501.88476562 C74.24254951 506.02983368 75.91492809 509.08898893 75 514 C73.68 515.98 72.36 517.96 71 520 C76.94 528.415 76.94 528.415 83 537 C83.99 536.67 84.98 536.34 86 536 C89.06327271 535.5984474 91.94066626 535.53728938 95 536 C97.5 537.9375 97.5 537.9375 100 541 C101.44795414 542.44795414 102.90741533 543.88444623 104.375 545.3125 C107.23159335 548.15965007 109.95341585 551.0502212 112.5625 554.125 C114.89917261 556.85652701 117.32416332 559.23387657 120.0625 561.5625 C129.74485319 569.88592643 129.74485319 569.88592643 130.4375 575.625 C130.07017288 578.45866634 129.57723152 581.20448206 129 584 C130.22976562 584.92232422 130.22976562 584.92232422 131.484375 585.86328125 C141 593 141 593 143.265625 594.79296875 C144.92142235 596.19040899 144.92142235 596.19040899 147 596 C147 595.34 147 594.68 147 594 C150.88434488 592.172073 153.71781386 591.59314146 158 592 C160.64258796 593.24086739 163.01757686 594.49899996 165.5 596 C166.19561035 596.40573242 166.8912207 596.81146484 167.60791016 597.22949219 C169.04404242 598.06775245 170.47715426 598.91120841 171.90722656 599.75976562 C185.32254475 609.17502755 185.32254475 609.17502755 200 614 C202.25696728 618.51393456 202.08092895 622.06333406 202 627 C204.74656201 628.17538461 207.49674122 629.34049752 210.25 630.5 C211.02730469 630.83386719 211.80460938 631.16773438 212.60546875 631.51171875 C213.73662109 631.98544922 213.73662109 631.98544922 214.890625 632.46875 C215.58188477 632.76201172 216.27314453 633.05527344 216.98535156 633.35742188 C219.28270168 634.20258049 219.28270168 634.20258049 223 634 C225.15449966 631.59855425 225.15449966 631.59855425 227 629 C233.42072934 625.78963533 241.57499046 628.98925161 248 630.8125 C256.20776604 633.06351414 264.31613068 634.94287216 272.72265625 636.26171875 C276.42209517 637.09508461 278.90317328 637.77292036 282 640 C282.99 642.97 283.98 645.94 285 649 C292.26 649.33 299.52 649.66 307 650 C307.99 647.69 308.98 645.38 310 643 C312.86431294 639.74325163 315.92532522 639.53998693 320.14285278 639.20271301 C320.94391449 639.15257553 321.7449762 639.10243805 322.5703125 639.05078125 C323.40658173 638.98843796 324.24285095 638.92609467 325.10446167 638.86186218 C326.87420836 638.73231502 328.64443283 638.60915839 330.41503906 638.49194336 C333.09551469 638.31445241 335.77417975 638.11906602 338.453125 637.91992188 C361.16231111 636.27258148 361.16231111 636.27258148 366 638.1875 C368.32283327 640.29256765 368.93454132 642.09377119 370 645 C381.29696663 643.5043345 381.29696663 643.5043345 392 640 C392.56310682 637.75651093 392.89225193 635.51231184 393.2421875 633.2265625 C394.23481467 630.31008061 395.42783476 629.663941 398 628 C399.83575569 627.24882233 401.70235867 626.57082766 403.5859375 625.94921875 C404.67535645 625.58304443 405.76477539 625.21687012 406.88720703 624.83959961 C408.03817871 624.45940674 409.18915039 624.07921387 410.375 623.6875 C417.77314173 621.20400511 425.02900499 618.69112216 432.125 615.4375 C437.13672184 613.21350972 440.55141269 612.00934776 446 613 C447.69321939 614.29944744 449.36395804 615.62926214 451 617 C457.88433751 616.57596472 466.08900881 611.71378366 471 607 C471.93813451 604.03216327 471.82956559 602.36662512 471.13671875 599.359375 C471 597 471 597 472.4921875 594.5234375 C475.54532525 591.45127708 478.81512192 589.22210486 482.4375 586.875 C488.51924953 582.82815294 494.18767239 578.54135881 499.66186523 573.70458984 C508.20201044 566.18926206 508.20201044 566.18926206 513.5625 565.625 C516.79785611 565.97794794 519.04005069 566.7350644 522 568 C523.24716797 566.73542969 523.24716797 566.73542969 524.51953125 565.4453125 C525.61705397 564.33840925 526.71471759 563.2316457 527.8125 562.125 C528.35970703 561.56941406 528.90691406 561.01382813 529.47070312 560.44140625 C530.00244141 559.90644531 530.53417969 559.37148438 531.08203125 558.8203125 C531.56905518 558.32805176 532.0560791 557.83579102 532.55786133 557.32861328 C534 556 534 556 537 554 C536.67 553.175 536.34 552.35 536 551.5 C534.87550522 547.56426828 534.34578774 544.04162033 535 540 C536.55553888 537.4626381 537.93360142 535.5585903 539.875 533.375 C540.89080678 532.16118021 541.90375774 530.94496563 542.9140625 529.7265625 C543.43000977 529.11200195 543.94595703 528.49744141 544.47753906 527.86425781 C546.87703031 524.92607385 549.0670745 521.85073196 551.25 518.75 C551.86572876 517.88205811 551.86572876 517.88205811 552.49389648 516.99658203 C554.37615393 514.33513288 556.2332884 511.65907382 558.07421875 508.96875 C558.68910156 508.0715625 559.30398438 507.174375 559.9375 506.25 C560.46214844 505.47140625 560.98679687 504.6928125 561.52734375 503.890625 C563 502 563 502 566 500 C568.26171875 500.0234375 568.26171875 500.0234375 570.6875 500.375 C571.49574219 500.48585938 572.30398438 500.59671875 573.13671875 500.7109375 C573.75160156 500.80632812 574.36648438 500.90171875 575 501 C576.73450799 498.09815476 578.4327466 495.17665574 580.125 492.25 C580.61871094 491.425 581.11242187 490.6 581.62109375 489.75 C582.07871094 488.95078125 582.53632812 488.1515625 583.0078125 487.328125 C583.43723145 486.5949707 583.86665039 485.86181641 584.30908203 485.10644531 C585.24024703 482.99697043 585.24024703 482.99697043 584.24951172 480.91699219 C583.17674749 479.27116478 582.0897524 477.6346286 581 476 C580.21925176 468.85376359 582.37649432 463.58781183 585.125 457.0625 C585.95420146 455.027009 586.7810054 452.99053975 587.60546875 450.953125 C588.0132959 449.95087891 588.42112305 448.94863281 588.84130859 447.91601562 C590.76532882 443.07393861 592.4679545 438.16008116 594.14697266 433.22875977 C597.11048909 424.59300728 597.11048909 424.59300728 601 422 C603.32387947 421.60612212 605.65793749 421.26513915 608 421 C608.65104151 418.64716625 609.29592122 416.29291551 609.9375 413.9375 C610.11990234 413.28072266 610.30230469 412.62394531 610.49023438 411.94726562 C611.65689649 407.6412218 612.45292805 403.42840346 613 399 C612.071875 398.62875 611.14375 398.2575 610.1875 397.875 C606.30162834 395.58919314 605.58967648 394.17844962 604 390 C603.87282777 387.1283863 603.89505257 384.54911212 604.109375 381.70703125 C604.15564026 380.92035568 604.20190552 380.13368011 604.24957275 379.32316589 C604.40079623 376.81835262 604.57517951 374.31576516 604.75 371.8125 C604.85305578 370.15048254 604.95463174 368.48837263 605.0546875 366.82617188 C605.29591234 362.90250968 605.56327154 358.9814298 605.84973145 355.06082153 C605.98534454 353.2009888 606.11371686 351.34063154 606.24121094 349.48022461 C606.35384277 348.0127478 606.35384277 348.0127478 606.46875 346.515625 C606.52998047 345.6999707 606.59121094 344.88431641 606.65429688 344.04394531 C607.20281496 340.80087086 608.54660506 339.11264565 611 337 C612.6523084 336.2985022 614.31786826 335.62662192 616 335 C615.85895309 332.08302989 615.71235186 329.1665198 615.5625 326.25 C615.52318359 325.425 615.48386719 324.6 615.44335938 323.75 C615.38051758 322.55117188 615.38051758 322.55117188 615.31640625 321.328125 C615.26141968 320.22839355 615.26141968 320.22839355 615.20532227 319.10644531 C614.99646484 316.96373199 614.67376821 315.04587636 614 313 C612.23997034 311.97897476 612.23997034 311.97897476 610.125 311.3125 C607.69529477 310.20546113 606.30332808 309.55673668 605.0090332 307.18115234 C603.24255203 301.27863415 602.05397607 295.39035491 601.0625 289.3125 C599.9491154 282.77984161 598.68940347 276.4640396 596.75 270.125 C595.24300998 265.1196403 594.24296525 261.20461393 595 256 C596.79363911 253.1899654 598.01880935 251.49059532 601 250 C600.5140424 243.03460774 598.3010585 236.13943494 595 230 C592.55093457 228.90836231 591.22831038 228.97658355 588.5625 229.25 C585.53470146 228.95460502 584.44092584 227.9742354 582.38061523 225.81054688 C579.33789327 221.82030354 577.38998535 217.13953262 575.25 212.625 C571.7383694 205.35207869 568.13265357 198.34684056 563.75 191.5625 C560.32684406 186.15406117 558.73516129 182.42959678 560 176 C560.97581759 174.64886795 561.97029741 173.31053056 563 172 C561.74796707 167.6370877 559.26181191 164.34908255 556.5625 160.75 C555.38880859 159.16445312 555.38880859 159.16445312 554.19140625 157.546875 C552.18749113 154.77756768 552.18749113 154.77756768 549 154 C548.34 154.33 547.68 154.66 547 155 C540.32983839 155.85678297 540.32983839 155.85678297 537.13183594 153.79638672 C535.2673497 152.09234741 533.56640181 150.3132456 531.875 148.4375 C531.29363281 147.82841797 530.71226562 147.21933594 530.11328125 146.59179688 C527.24685371 143.5618483 524.50873428 140.43877963 521.81640625 137.25390625 C519.7133959 134.77848782 517.56976613 132.57790344 515.0625 130.5 C514.39347656 129.91863281 513.72445313 129.33726562 513.03515625 128.73828125 C511.68759541 127.58729359 510.32025808 126.45903337 508.93359375 125.35546875 C506.07108331 122.88619207 504.22842354 121.24681181 503.53125 117.44140625 C503.48730445 113.65659602 503.80003251 110.59990246 505 107 C502.7524911 105.37145746 500.50215838 103.74709026 498.25 102.125 C497.61578125 101.66480469 496.9815625 101.20460937 496.328125 100.73046875 C493.31304443 98.56337959 490.41702887 96.50142178 487 95 C486.154375 95.680625 485.30875 96.36125 484.4375 97.0625 C481.03515627 98.98018465 479.81511099 99.33559515 476.08129883 98.66186523 C471.55532852 97.22258013 467.62951152 94.49858319 463.625 92 C455.95273878 87.31887125 448.25618877 82.86623451 440.19189453 78.89257812 C436.61503568 77.07956394 433.87955125 75.62683778 432 72 C431.76953125 69.78125 431.76953125 69.78125 431.8125 67.5 C431.56836059 64.15248884 431.56836059 64.15248884 429.515625 61.66796875 C427.38233245 60.59705589 425.25338827 59.78776988 423 59 C421.20779356 58.25129076 419.41612786 57.50128585 417.625 56.75 C414.40360143 55.3989857 414.40360143 55.3989857 411 55 C409.98133771 56.65532623 408.98189187 58.32260138 408 60 C401.08824877 63.45587562 391.63862921 60.64257135 384.65258789 58.70214844 C380.54217182 57.57967189 376.46985779 56.70176301 372.26171875 56.01953125 C371.27671387 55.8587207 370.29170898 55.69791016 369.27685547 55.53222656 C367.33699607 55.22483985 365.39456335 54.93317787 363.44970703 54.65917969 C359.18625655 53.9727895 356.52349931 53.37992641 352.98046875 50.80859375 C351 48 351 48 349 41 C338.11 40.505 338.11 40.505 327 40 Z " fill="#FEFEFE" transform="translate(0,0)"/>
<path d="M0 0 C10.89 0.495 10.89 0.495 22 1 C22.99 3.97 23.98 6.94 25 10 C27.61459345 12.75353157 29.94343968 13.44234135 33.640625 14.02734375 C34.53861816 14.1778418 35.43661133 14.32833984 36.36181641 14.48339844 C37.31491699 14.63325195 38.26801758 14.78310547 39.25 14.9375 C46.14643439 16.08860185 52.88419999 17.39360773 59.625 19.25 C65.93187835 20.88175908 72.51475246 22.40444851 79 21 C81.23621852 19.118492 82.69442034 17.61115931 84 15 C101.61702128 20.61702128 101.61702128 20.61702128 104 23 C104.20373748 25.19130977 104.31882881 27.38006787 104.42578125 29.578125 C105.23909566 33.00843067 106.47918512 34.51045104 109 37 C111.89427701 38.75212562 114.92932548 40.14836198 118 41.5625 C126.4861994 45.59264369 134.45545841 50.1353417 142.28710938 55.32836914 C146.07857341 57.7341583 148.18589049 58.99577306 152.76171875 59.01953125 C156.44177327 57.99927313 156.44177327 57.99927313 161 55 C166.61 58.96 172.22 62.92 178 67 C177.67 67.99 177.34 68.98 177 70 C176.00300288 73.63693315 175.92918348 76.36018419 177 80 C181.87385534 86.8450047 189.01947655 92.31593893 195.46484375 97.62109375 C197.2834586 99.25460785 198.84239363 101.02296374 200.4375 102.875 C201.30375 103.87660156 201.30375 103.87660156 202.1875 104.8984375 C203.44453171 106.3559441 204.69403288 107.81996627 205.9375 109.2890625 C209.43853527 113.3306024 209.43853527 113.3306024 214.14453125 115.53515625 C217.5523027 115.57941302 220.7276007 114.86153875 224 114 C232.44646925 124.37357631 232.44646925 124.37357631 236 130 C235 132 234 134 233 136 C231.79810259 143.6280559 234.39635888 148.48732659 238.375 154.8125 C239.48154628 156.64674223 240.58299116 158.48407029 241.6796875 160.32421875 C242.23624023 161.25669434 242.79279297 162.18916992 243.36621094 163.14990234 C246.4400371 168.51210297 249.0819682 174.0948869 251.70068359 179.69067383 C254.2502623 185.30953305 254.2502623 185.30953305 259 189 C261.73713695 189.37460816 264.22025584 189.13898721 267 189 C270.53098625 195.69669806 274 202.30771328 274 210 C271.5625 212.125 271.5625 212.125 269 214 C266.15926322 219.68147355 268.45413526 226.44004277 270.25 232.125 C272.66329894 240.18305148 274.26108445 248.25660319 275.56738281 256.56298828 C276.71579295 263.67158327 276.71579295 263.67158327 280 270 C281.18722656 270.45761719 282.37445312 270.91523438 283.59765625 271.38671875 C284.72042969 271.91910156 285.84320312 272.45148438 287 273 C287.90903098 275.90446483 288.28488147 277.85919755 288.4375 280.8125 C288.50130859 281.51181641 288.56511719 282.21113281 288.63085938 282.93164062 C288.9734415 286.95603942 289.0570324 290.9633734 289 295 C288.071875 295.4125 287.14375 295.825 286.1875 296.25 C282.93320882 298.03666967 281.81263385 298.8537338 280 302 C279.4192904 305.33101619 279.4192904 305.33101619 279.3046875 309.08203125 C279.26691193 309.77326584 279.22913635 310.46450043 279.19021606 311.17668152 C279.07215987 313.3881775 278.97309542 315.60003761 278.875 317.8125 C278.76577073 319.97645314 278.6526738 322.14018153 278.53936768 324.30392456 C278.46624539 325.73937156 278.397194 327.17503172 278.33221436 328.61087036 C278.1690384 332.15372378 277.95436801 335.67752905 277.61816406 339.20849609 C277.55831329 339.88079758 277.49846252 340.55309906 277.4367981 341.24577332 C277.26897265 343.07741711 277.08265085 344.90733956 276.89501953 346.73706055 C277.01920942 350.59705553 277.93497992 352.75904121 280 356 C283.05039221 357.90206849 283.05039221 357.90206849 286 359 C285.54702053 361.54272475 285.08779821 364.08405982 284.625 366.625 C284.49867188 367.33785156 284.37234375 368.05070312 284.2421875 368.78515625 C283.46899424 372.99905953 282.46604985 376.95880171 281 381 C279.9275 381.0825 278.855 381.165 277.75 381.25 C273.50485579 382.09902884 272.66302892 382.71953494 270 386 C268.95194152 388.3235802 268.07053318 390.53770919 267.25 392.9375 C266.74062766 394.35974945 266.2301501 395.78160341 265.71875 397.203125 C265.44675781 397.96818359 265.17476562 398.73324219 264.89453125 399.52148438 C263.24198538 404.1002632 261.48979153 408.641325 259.75 413.1875 C259.23808105 414.5321936 259.23808105 414.5321936 258.71582031 415.90405273 C258.23000488 417.17937866 258.23000488 417.17937866 257.734375 418.48046875 C257.43160645 419.27630371 257.12883789 420.07213867 256.81689453 420.89208984 C256.17021039 422.56079005 255.48615223 424.21500134 254.7890625 425.86328125 C253.53559412 429.25757434 253.36088205 432.44127508 254 436 C254.70125 436.86625 255.4025 437.7325 256.125 438.625 C257.053125 439.800625 257.053125 439.800625 258 441 C256.85301152 445.93205045 254.42410127 450.06044343 251.875 454.375 C251.31619141 455.33599609 251.31619141 455.33599609 250.74609375 456.31640625 C249.83565998 457.88048477 248.91851809 459.44065534 248 461 C247.11248047 460.82210937 247.11248047 460.82210937 246.20703125 460.640625 C245.41683594 460.51171875 244.62664063 460.3828125 243.8125 460.25 C243.03519531 460.11078125 242.25789062 459.9715625 241.45703125 459.828125 C237.82064416 460.08249866 236.57561997 461.43623104 234 464 C232.00024083 466.68083389 230.22168972 469.48510365 228.4375 472.3125 C223.50416541 479.93935759 218.16945495 487.05071935 212.3984375 494.05859375 C208.98005552 498.25084396 207.77785545 500.32360434 207.734375 505.76953125 C208.0804097 508.67520498 209.01286126 511.25403073 210 514 C204.74557475 518.76636599 199.49783089 523.51492743 194 528 C193.484375 527.67 192.96875 527.34 192.4375 527 C188.89421102 525.54634298 186.82786472 525.43523307 183 526 C179.71214033 527.97795542 176.91110172 530.5121742 174 533 C171.78709455 534.79159961 169.55097936 536.5530114 167.3125 538.3125 C166.7249292 538.77760986 166.1373584 539.24271973 165.53198242 539.72192383 C160.62864151 543.57724261 155.58635059 547.21192058 150.44262695 550.73950195 C147.64881377 552.68325406 145.91539114 554.12691329 144 557 C144.28832464 558.52560125 144.60404327 560.04612377 144.9375 561.5625 C145.04296875 564.2109375 145.04296875 564.2109375 144 567 C139.38990648 571.21357185 132.95668085 575.09071487 127 577 C124.3417618 576.6364415 123.26591809 576.23742686 121.25 574.4375 C117.89713372 572.29539099 114.8201278 572.47373065 111 573 C106.90516374 574.2737123 103.00176575 575.93708613 99.0625 577.625 C96.84374679 578.54999674 94.62368615 579.47186348 92.40234375 580.390625 C91.31808105 580.83986328 90.23381836 581.28910156 89.11669922 581.75195312 C84.16843115 583.73343098 79.12967008 585.44296492 74.03930664 587.02197266 C70.18510055 588.28844632 67.93182153 589.35635086 66 593 C65.27518916 596.65274469 65.27518916 596.65274469 65 600 C61.02688664 601.73729291 57.11454507 602.73388543 52.875 603.625 C51.65554688 603.88539063 50.43609375 604.14578125 49.1796875 604.4140625 C46 605 46 605 43 605 C42.5875 604.05125 42.175 603.1025 41.75 602.125 C39.90243866 598.82578332 39.36959417 598.28621609 36 597 C27.2441677 595.8866335 17.63926931 597.4279785 8.85766602 598.06201172 C7.06913257 598.18793023 5.28003195 598.30602365 3.49047852 598.41650391 C0.88144799 598.57788724 -1.72496683 598.76285932 -4.33203125 598.953125 C-5.12793167 598.9981012 -5.92383209 599.04307739 -6.74385071 599.0894165 C-11.61532275 599.47853361 -14.58255538 600.21129426 -18 604 C-18.66 605.98 -19.32 607.96 -20 610 C-27.26 609.67 -34.52 609.34 -42 609 C-42.99 606.03 -43.98 603.06 -45 600 C-49.94285663 596.12651139 -56.93851954 595.66405621 -63 594.5625 C-70.13076299 593.21535521 -77.12219083 591.8171705 -84.0625 589.6875 C-88.99854183 588.20547764 -92.86656002 587.25331782 -98 588 C-100.8100346 589.79363911 -102.50940468 591.01880935 -104 594 C-109.330123 593.45806986 -113.57894042 592.15341447 -118.4375 589.9375 C-119.07365234 589.65583984 -119.70980469 589.37417969 -120.36523438 589.08398438 C-121.91363051 588.39710188 -123.45733357 587.69965593 -125 587 C-124.95875 585.783125 -124.9175 584.56625 -124.875 583.3125 C-124.90012744 579.76324857 -125.02125216 577.05806485 -127 574 C-128.99906826 573.33054458 -130.99932739 572.66464544 -133 572 C-136.07488717 570.56014876 -139.06641245 568.97131305 -142.0625 567.375 C-142.89724854 566.93349609 -143.73199707 566.49199219 -144.59204102 566.03710938 C-150.69013586 562.7791669 -156.60163705 559.30430394 -162.43359375 555.59375 C-166.92781637 552.80281723 -169.60858424 551.55988443 -175 552 C-177.78566059 552.91257306 -177.78566059 552.91257306 -180 554 C-180 554.66 -180 555.32 -180 556 C-184.32129587 554.55956804 -187.23116965 552.37514503 -190.6875 549.4375 C-194.13816051 546.40830054 -194.13816051 546.40830054 -198 544 C-197.835 543.319375 -197.67 542.63875 -197.5 541.9375 C-196.26199496 535.89271873 -196.26199496 535.89271873 -198.10546875 530.1953125 C-202.33453746 525.16219863 -207.36604441 520.84719421 -212.22363281 516.43408203 C-216.48569783 512.54343611 -220.33956821 508.46534349 -224 504 C-225.10054653 502.68446299 -226.20459319 501.37184441 -227.3125 500.0625 C-227.78300781 499.49660156 -228.25351563 498.93070313 -228.73828125 498.34765625 C-230.44074774 496.52923229 -231.57294258 496.02755209 -234.05859375 495.8671875 C-234.84363281 495.86976563 -235.62867188 495.87234375 -236.4375 495.875 C-237.21996094 495.87242187 -238.00242187 495.86984375 -238.80859375 495.8671875 C-241.17895347 495.91617452 -241.17895347 495.91617452 -244 497 C-249.94 488.585 -249.94 488.585 -256 480 C-254.68 478.02 -253.36 476.04 -252 474 C-250.7914063 468.00738956 -254.07162852 463.61691191 -257 458.625 C-258.01563981 456.84263565 -259.028631 455.05875962 -260.0390625 453.2734375 C-260.54211914 452.3875293 -261.04517578 451.50162109 -261.56347656 450.58886719 C-263.62738288 446.86934601 -265.50874029 443.07136712 -267.375 439.25 C-268.02094219 437.96033917 -268.66801758 436.67124508 -269.31640625 435.3828125 C-270.3165128 433.37331767 -271.29250132 431.35104208 -272.21484375 429.3046875 C-273.32172505 427.10668121 -274.11092752 425.58221807 -276 424 C-278.59154224 423.60394601 -278.59154224 423.60394601 -281.4375 423.5 C-284.33203125 423.2109375 -284.33203125 423.2109375 -287 422 C-290.21536315 417.30366548 -291.54539011 411.42980332 -293 406 C-293.23509277 405.31534668 -293.47018555 404.63069336 -293.71240234 403.92529297 C-293.80730957 403.28994629 -293.9022168 402.65459961 -294 402 C-291.625 399.375 -291.625 399.375 -289 397 C-285.92167657 390.84335315 -289.75386658 381.51859132 -291.34863281 375.18237305 C-292.4247657 370.79612802 -293.28541997 366.42911773 -293.9765625 361.96484375 C-294.21862427 360.42026489 -294.21862427 360.42026489 -294.46557617 358.84448242 C-294.77473688 356.81726466 -295.06720999 354.7874153 -295.34106445 352.75512695 C-296.22725724 347.00008091 -297.08700069 343.64008585 -302 340 C-305.16701423 338.66436389 -305.16701423 338.66436389 -308 338 C-308.79725902 330.63959083 -309.12886183 323.40239645 -309 316 C-308.071875 315.5875 -307.14375 315.175 -306.1875 314.75 C-302.87070411 312.92901402 -301.7943109 312.24270727 -300 309 C-299.40669945 305.9912194 -299.23092403 302.97979727 -299.05078125 299.921875 C-298.98843796 299.03647034 -298.92609467 298.15106567 -298.86186218 297.23883057 C-298.6661211 294.40991362 -298.48941446 291.58014994 -298.3125 288.75 C-298.18281598 286.86059604 -298.05196907 284.97127152 -297.91992188 283.08203125 C-295.80130793 268.27342713 -295.80130793 268.27342713 -300 255 C-301.31330895 254.29470445 -302.64502296 253.62149773 -304 253 C-303.54593375 245.04601192 -302.12888539 237.67202093 -300 230 C-298.9275 229.9175 -297.855 229.835 -296.75 229.75 C-292.53996952 228.9079939 -291.65599361 228.23209103 -289 225 C-287.76166212 222.31475824 -287.76166212 222.31475824 -286.88671875 219.30078125 C-286.52892334 218.18147217 -286.17112793 217.06216309 -285.80249023 215.90893555 C-285.25057007 214.12869995 -285.25057007 214.12869995 -284.6875 212.3125 C-281.84764412 203.42012362 -278.90874979 194.70117808 -275.03198242 186.20239258 C-273.29373886 182.27355704 -272.28982699 179.27781379 -273 175 C-274.4637612 172.48965113 -276.14792847 170.23571491 -278 168 C-276.57826117 165.17925946 -275.13504866 162.37007111 -273.6875 159.5625 C-273.28337891 158.76005859 -272.87925781 157.95761719 -272.46289062 157.13085938 C-272.06650391 156.36708984 -271.67011719 155.60332031 -271.26171875 154.81640625 C-270.90037842 154.10943604 -270.53903809 153.40246582 -270.16674805 152.67407227 C-269 151 -269 151 -266 150 C-264.88625 150.04125 -263.7725 150.0825 -262.625 150.125 C-258.4494654 149.98101605 -257.2840275 149.51791707 -254 147 C-251.89764746 144.33777364 -250.11521311 141.49568093 -248.3125 138.625 C-244.58611832 132.855212 -240.79937269 127.22075764 -236.5625 121.8125 C-235.76199219 120.78253906 -234.96148437 119.75257813 -234.13671875 118.69140625 C-232.87098128 117.09708611 -231.58818822 115.5156796 -230.26953125 113.96484375 C-227.05238078 110.00873996 -226.48007089 107.04235833 -226.62890625 102.11328125 C-227.03889833 99.77848426 -227.90716097 98.08980541 -229 96 C-226.77048251 93.62567972 -224.513408 91.27949855 -222.25 88.9375 C-221.29867187 87.92333008 -221.29867187 87.92333008 -220.328125 86.88867188 C-219.709375 86.25380859 -219.090625 85.61894531 -218.453125 84.96484375 C-217.88754883 84.3730835 -217.32197266 83.78132324 -216.73925781 83.17163086 C-215 82 -215 82 -212.9074707 82.27514648 C-212.27800537 82.51434814 -211.64854004 82.7535498 -211 83 C-207.83979477 84.01376881 -205.31370752 84.49148261 -202 84 C-197.91204068 81.46737214 -194.52477123 78.25363498 -191 75 C-189.4098198 73.6705889 -187.80599202 72.35729362 -186.1875 71.0625 C-184.98287109 70.09570312 -184.98287109 70.09570312 -183.75390625 69.109375 C-181.66103518 67.50632482 -179.5590825 65.96595144 -177.40234375 64.453125 C-176.77755127 64.01476318 -176.15275879 63.57640137 -175.5090332 63.12475586 C-174.28470312 62.27199259 -173.05559313 61.42603695 -171.82104492 60.58813477 C-168.22848297 58.09430609 -165.34859956 55.71193297 -163 52 C-162.5218012 49.33880783 -162.5218012 49.33880783 -162.75 46.6875 C-162.83333333 45.125 -162.91666667 43.5625 -163 42 C-160.23456804 40.48987869 -157.46183193 38.99369852 -154.6875 37.5 C-153.90181641 37.07074219 -153.11613281 36.64148438 -152.30664062 36.19921875 C-151.54931641 35.79316406 -150.79199219 35.38710937 -150.01171875 34.96875 C-149.31522217 34.59169922 -148.61872559 34.21464844 -147.90112305 33.82617188 C-146 33 -146 33 -143 33 C-142.443125 33.66 -141.88625 34.32 -141.3125 35 C-138.51627564 37.4183562 -136.76681297 37.34808976 -133.15649414 37.24951172 C-129.69085597 36.84852879 -126.69336254 35.51099732 -123.5625 34.0625 C-118.26446357 31.72500559 -112.95393467 29.593505 -107.4765625 27.70703125 C-106.35435303 27.3195874 -105.23214355 26.93214355 -104.07592773 26.53295898 C-101.8478164 25.77152574 -99.61560341 25.02197259 -97.37915039 24.28540039 C-89.86434192 21.88060349 -89.86434192 21.88060349 -85 16 C-84.19777849 12.310252 -84.19777849 12.310252 -84 9 C-81.2735685 8.2996047 -78.54476473 7.6144225 -75.8125 6.9375 C-75.04357422 6.73833984 -74.27464844 6.53917969 -73.48242188 6.33398438 C-65.98055241 4.49876309 -65.98055241 4.49876309 -62 6 C-60.375 8.4375 -60.375 8.4375 -59 11 C-55.15281331 13.56479113 -53.30693214 13.06421849 -48.75 12.6875 C-47.46609375 12.58824219 -46.1821875 12.48898438 -44.859375 12.38671875 C-42.50913147 12.15121864 -40.16244778 11.86161283 -37.83203125 11.4765625 C-34.45512182 11.05660027 -31.23713342 10.89342186 -27.83984375 10.82421875 C-26.71642578 10.80037109 -25.59300781 10.77652344 -24.43554688 10.75195312 C-22.09979681 10.70891585 -19.76379951 10.67770283 -17.42773438 10.65820312 C-8.85352259 10.5496994 -8.85352259 10.5496994 -2 6 C-1.34 4.02 -0.68 2.04 0 0 Z M-192 95 C-192.50982422 95.44666016 -193.01964844 95.89332031 -193.54492188 96.35351562 C-206.43743688 107.67009252 -217.88669616 120.15720538 -228 134 C-228.80426862 135.0732307 -229.60896053 136.14614431 -230.4140625 137.21875 C-237.68368934 147.02449516 -243.90176839 157.43695221 -250 168 C-250.37366699 168.6398584 -250.74733398 169.2797168 -251.13232422 169.93896484 C-262.34796633 189.29386662 -270.12563745 210.48436323 -276 232 C-276.20705566 232.73895508 -276.41411133 233.47791016 -276.62744141 234.23925781 C-279.63218527 245.02798429 -281.5029733 255.91299777 -283 267 C-283.10586426 267.74072754 -283.21172852 268.48145508 -283.32080078 269.24462891 C-292.73108623 336.81674199 -275.11909346 411.6747183 -235 467 C-234.53625977 467.64485352 -234.07251953 468.28970703 -233.59472656 468.95410156 C-223.51119483 482.9039975 -212.56499842 495.59525531 -200.4375 507.8125 C-199.14404663 509.11997192 -199.14404663 509.11997192 -197.82446289 510.45385742 C-191.85860608 516.39033969 -185.59790881 521.77982401 -179 527 C-178.35184326 527.52343994 -177.70368652 528.04687988 -177.03588867 528.58618164 C-123.56242378 571.53236449 -52.90264032 591.77093966 15.15698242 585.17407227 C20.45897584 584.57834719 25.72785697 583.81534784 31 583 C32.02657715 582.84966309 33.0531543 582.69932617 34.11083984 582.54443359 C79.74218774 575.6665203 122.9916998 555.54968166 159 527 C159.92683594 526.26910156 160.85367187 525.53820312 161.80859375 524.78515625 C169.19040338 518.8604237 176.13489258 512.50844819 183 506 C183.75410156 505.2884375 184.50820313 504.576875 185.28515625 503.84375 C189.78616825 499.47696301 193.75279687 494.77844479 197.66796875 489.8828125 C199.17804583 488.01608405 200.72082308 486.17515322 202.30078125 484.3671875 C214.44156363 470.41820349 224.5387808 454.4236488 233 438 C233.63518555 436.76854248 233.63518555 436.76854248 234.28320312 435.51220703 C268.71696786 367.92046093 274.84981835 289.08169135 251.74542236 216.84320068 C242.01922887 187.03179609 227.4970097 158.62056252 208 134 C207.18663117 132.92351186 206.37553146 131.84530642 205.56640625 130.765625 C190.6796279 111.08727917 172.7725455 93.72048377 153 79 C152.04383789 78.28312012 152.04383789 78.28312012 151.06835938 77.55175781 C116.50720373 51.82591232 77.1139005 36.06614237 35 28 C34.05930664 27.81598633 33.11861328 27.63197266 32.14941406 27.44238281 C17.80181268 24.82095345 3.16888226 24.7608498 -11.375 24.75 C-12.20016113 24.74932526 -13.02532227 24.74865051 -13.87548828 24.74795532 C-80.39207095 24.8336478 -142.51770723 51.11498223 -192 95 Z " fill="#FB2A51" transform="translate(327,40)"/>
<path d="M0 0 C0.82047318 0.34027725 1.64094635 0.6805545 2.48628235 1.03114319 C3.35730087 1.39783615 4.2283194 1.76452911 5.12573242 2.14233398 C6.02869553 2.5182518 6.93165863 2.89416962 7.86198425 3.28147888 C10.73687192 4.4794978 13.60904871 5.68386819 16.48120117 6.88842773 C18.4334996 7.70330153 20.38597165 8.51775949 22.33862305 9.33178711 C27.11734152 11.32501986 31.89363926 13.32395194 36.66870117 15.32592773 C35.15950947 18.56707083 34.14709046 19.9725113 30.97338867 21.68530273 C30.25795898 22.0784668 29.5425293 22.47163086 28.80541992 22.87670898 C28.05905273 23.27245117 27.31268555 23.66819336 26.54370117 24.07592773 C25.78959961 24.48713867 25.03549805 24.89834961 24.25854492 25.32202148 C22.40064916 26.3332812 20.53536285 27.33094178 18.66870117 28.32592773 C18.51284235 31.59896296 18.58492187 34.07928148 19.64526367 37.20092773 C23.52005361 49.03234739 20.42034833 63.24545693 15.34838867 74.16967773 C11.13735743 81.80936283 5.24949797 88.23919103 -3.26879883 90.88452148 C-10.15072443 92.35735784 -15.17631968 91.67689038 -21.19848633 87.93139648 C-31.33061368 80.30446545 -36.42494224 68.61299166 -38.33129883 56.32592773 C-38.8444422 48.87733097 -38.59800564 42.40938653 -36.33129883 35.32592773 C-35.74009525 31.24684824 -35.74009525 31.24684824 -36.33129883 27.32592773 C-38.50441266 25.1016464 -41.05534563 23.86639231 -43.83129883 22.51342773 C-46.40099495 21.19153901 -48.85239498 19.82212327 -51.33129883 18.32592773 C-51.33129883 17.33592773 -51.33129883 16.34592773 -51.33129883 15.32592773 C-45.78972535 12.90387215 -40.24489526 10.48960935 -34.69458008 8.08764648 C-30.70350665 6.36045528 -26.72223831 4.61384996 -22.74926758 2.84545898 C-21.06846152 2.1093627 -19.38748161 1.37366322 -17.70629883 0.63842773 C-16.9324585 0.28780273 -16.15861816 -0.06282227 -15.36132812 -0.42407227 C-14.63727783 -0.73731445 -13.91322754 -1.05055664 -13.16723633 -1.37329102 C-12.54381348 -1.65003662 -11.92039062 -1.92678223 -11.27807617 -2.21191406 C-7.36532382 -3.14078793 -3.6019563 -1.50546161 0 0 Z " fill="#FB2A51" transform="translate(325.331298828125,172.674072265625)"/>
<path d="M0 0 C0.54269531 1.10859375 1.08539063 2.2171875 1.64453125 3.359375 C2.36697274 4.82302269 3.08964092 6.2865585 3.8125 7.75 C4.16892578 8.47960937 4.52535156 9.20921875 4.89257812 9.9609375 C7.43119408 15.32661224 7.43119408 15.32661224 11 20 C13.0316566 20.68850829 13.0316566 20.68850829 15.1875 20.75 C16.445625 20.8325 17.70375 20.915 19 21 C17.87302957 16.03088634 17.87302957 16.03088634 15 12 C15 11.01 15 10.02 15 9 C20.28 9 25.56 9 31 9 C30.34 10.65 29.68 12.3 29 14 C28.31320058 16.32748694 27.64238957 18.65986656 27 21 C32.25564578 21.07115173 32.25564578 21.07115173 36.65625 18.57421875 C41.02736985 12.95918979 43.98690784 6.41083438 47 0 C60.21120389 1.14880034 68.56539886 7.75287049 76.96875 17.51953125 C78 19 78 19 78 21 C79.09699219 20.96519531 80.19398438 20.93039062 81.32421875 20.89453125 C82.77863045 20.86638135 84.2330588 20.83908248 85.6875 20.8125 C86.40873047 20.78736328 87.12996094 20.76222656 87.87304688 20.73632812 C92.46146874 20.67347303 95.36934474 21.13296248 99 24 C101.40743814 28.81487628 99.81058157 34.77545014 98.74658203 39.8215332 C98.54657593 40.78385109 98.54657593 40.78385109 98.3425293 41.76560974 C97.90472733 43.86223272 97.45668662 45.95650316 97.0078125 48.05078125 C96.69831793 49.51563668 96.38923216 50.98057855 96.08053589 52.44560242 C95.43446824 55.50355985 94.78326718 58.56036655 94.12841797 61.61645508 C93.28894339 65.536352 92.46275892 69.45891314 91.64038277 73.38242817 C91.00582323 76.40239098 90.36414741 79.42080718 89.72030258 82.43880272 C89.41265938 83.88524139 89.10728197 85.33216388 88.80420303 86.77956581 C88.38079012 88.79648842 87.94781179 90.81112006 87.51220703 92.82543945 C87.26793976 93.97236771 87.02367249 95.11929596 86.77200317 96.30097961 C86 99 86 99 84 101 C84.66900489 93.24349695 86.25506281 85.82740925 87.9765625 78.2421875 C88.26975203 76.92677437 88.56216747 75.6111885 88.85385132 74.29544067 C90.08384513 68.75067704 91.32259617 63.20793905 92.57617188 57.66845703 C93.34633173 54.26276811 94.10456158 50.85460155 94.85544968 47.44461441 C95.28041008 45.53114672 95.71851756 43.62061398 96.15689087 41.71017456 C98.07054181 33.35023259 98.07054181 33.35023259 97 25 C94.34201565 23.67100783 92.32853735 23.86800367 89.35084534 23.85955811 C88.14920746 23.85384796 86.94756958 23.84813782 85.70951843 23.84225464 C84.37088023 23.84100924 83.03224191 23.83988415 81.69360352 23.83886719 C80.28932565 23.83423991 78.88504905 23.82921537 77.48077393 23.82382202 C73.66056531 23.81068885 69.84037428 23.80425149 66.02014661 23.79981136 C63.63510669 23.79688261 61.2500716 23.79277823 58.8650341 23.78830719 C51.40755121 23.77463095 43.95007933 23.76496445 36.49258476 23.7611053 C27.87485857 23.75662158 19.25729076 23.73905978 10.63961273 23.7101047 C3.98395096 23.68851557 -2.67166616 23.67840253 -9.3273626 23.67706418 C-13.30527806 23.67601432 -17.28304468 23.67006813 -21.26092339 23.65224457 C-25.00131414 23.63581117 -28.74144339 23.6335851 -32.4818573 23.64238358 C-33.85611736 23.64315646 -35.23039121 23.63877828 -36.60461617 23.62892532 C-38.47765571 23.61628141 -40.35079949 23.62384669 -42.22386169 23.63250732 C-43.79761393 23.63030748 -43.79761393 23.63030748 -45.40315914 23.6280632 C-48.03374392 23.79117781 -48.03374392 23.79117781 -49.84990692 25.39805698 C-51.85551527 28.19163113 -50.94639333 30.77089049 -50.50930786 34.03158569 C-49.54809947 39.63382541 -48.32318047 45.16647332 -47.05859375 50.70703125 C-46.61991493 52.66803472 -46.18124191 54.6290395 -45.74291325 56.59012127 C-44.97935604 59.9986907 -44.2080665 63.40550962 -43.4375 66.8125 C-42.51318825 70.90148601 -41.59048637 74.99080449 -40.67579651 79.08195496 C-40.10767198 81.62060683 -39.53471889 84.15818405 -38.95640564 86.6945343 C-38.69936356 87.8431041 -38.44232147 88.99167389 -38.17749023 90.17504883 C-37.94956284 91.18191238 -37.72163544 92.18877594 -37.48680115 93.22615051 C-37.02032925 95.88416157 -36.90726414 98.30846797 -37 101 C-39.14908734 97.77636899 -39.69648937 95.56707673 -40.51220703 91.80371094 C-40.7923465 90.5251825 -41.07248596 89.24665405 -41.3611145 87.92938232 C-41.66036491 86.53112164 -41.95925532 85.13278387 -42.2578125 83.734375 C-42.56848048 82.29803879 -42.87951082 80.8617809 -43.19088745 79.42559814 C-43.84229438 76.4137002 -44.48893463 73.40082743 -45.13232422 70.38720703 C-45.95465922 66.53750678 -46.78922713 62.6905821 -47.62750435 58.84432602 C-48.27267852 55.87705288 -48.91099577 52.908336 -49.54732895 49.93915558 C-49.85215861 48.52101443 -50.15914767 47.10333558 -50.4683876 45.6861496 C-50.90143304 43.6968956 -51.3241985 41.7054123 -51.74658203 39.71386719 C-51.98925812 38.58374207 -52.2319342 37.45361694 -52.48196411 36.28924561 C-53.89415012 27.32263395 -53.89415012 27.32263395 -51.02734375 23.08203125 C-47.01588964 20.32318604 -44.2883689 20.53111243 -39.5625 20.6875 C-33.84655154 20.74640944 -33.84655154 20.74640944 -28.8359375 18.41796875 C-27.40286633 16.39191513 -27.40286633 16.39191513 -26.22265625 14.19140625 C-21.41452478 5.57363706 -9.74518217 -0.58791775 0 0 Z " fill="#FC738D" transform="translate(293,259)"/>
<path d="M0 0 C5.84703153 0.97450526 9.76579484 2.75826546 14.7890625 5.56054688 C18.7533083 7.66928115 21.53265285 8.63573786 26 8 C28.6858319 7.02343095 31.20495461 5.79502309 33.75 4.5 C40.79054054 1 40.79054054 1 43 1 C43.99 3.97 44.98 6.94 46 10 C46.99 9.34 47.98 8.68 49 8 C48.7466446 19.49312208 45.50779012 31.78290886 37 40 C31.56744088 44.33754231 26.49653348 45.7863716 19.5703125 45.41015625 C12.83822242 44.33588656 8.82154767 40.33348341 4.5703125 35.21484375 C2.08436625 31.70854642 0.48531561 28.01557688 -1 24 C-1.61875 22.39125 -1.61875 22.39125 -2.25 20.75 C-2.99237953 18.02794174 -3.1650373 15.80563409 -3 13 C-2.01 13 -1.02 13 0 13 C0 8.71 0 4.42 0 0 Z " fill="#FEFBFC" transform="translate(294,214)"/>
<path d="M0 0 C2.3776406 1.75110017 4.39795467 3.4517615 6.3125 5.703125 C6.3125 6.693125 6.3125 7.683125 6.3125 8.703125 C4.3125 10.390625 4.3125 10.390625 2.3125 11.703125 C-0.1175277 10.62311269 -1.83171186 9.57163772 -3.8125 7.765625 C-10.7351987 2.79934115 -19.34755117 1.62700257 -27.6875 2.703125 C-36.29495155 5.04301474 -43.17578921 10.66630356 -47.625 18.328125 C-50.77738835 24.24820345 -50.89437583 30.01247053 -50.9375 36.578125 C-50.958125 37.35542969 -50.97875 38.13273437 -51 38.93359375 C-51.05622445 47.296981 -48.04617917 54.13959929 -42.19140625 60.26953125 C-35.17435908 66.73558626 -28.24025647 69.39660204 -18.6796875 69.01953125 C-10.50740846 68.15536075 -4.29994428 65.8647993 1.3125 59.703125 C1.8075 58.713125 1.8075 58.713125 2.3125 57.703125 C5.79149158 59.09472163 6.79302501 60.33563988 8.3125 63.703125 C2.70113119 70.55926929 -3.99038918 74.89480269 -12.92871094 75.97363281 C-22.26107094 76.65131737 -31.4779027 76.69418699 -39.6875 71.703125 C-40.38875 71.27902344 -41.09 70.85492188 -41.8125 70.41796875 C-51.38440942 63.90979549 -56.95527099 54.49815553 -59.4375 43.328125 C-59.52 42.131875 -59.6025 40.935625 -59.6875 39.703125 C-59.75066406 38.80851562 -59.81382813 37.91390625 -59.87890625 36.9921875 C-60.36468408 24.80073102 -56.05434836 14.7837456 -47.9453125 5.765625 C-35.31467572 -6.39332825 -15.14954442 -8.71979592 0 0 Z " fill="#FB2F55" transform="translate(184.6875,419.296875)"/>
<path d="M0 0 C1.98 0 3.96 0 6 0 C6.33 13.2 6.66 26.4 7 40 C8.98 37.525 8.98 37.525 11 35 C16.45041995 30.92576582 22.38201771 30.87744477 29 31 C34.71572031 32.03284069 37.79810938 35.42587055 41 40 C43.39500715 44.56902471 43.25977104 48.77153717 43.1953125 53.80078125 C43.1924826 54.63715622 43.18965271 55.47353119 43.18673706 56.33525085 C43.1755832 58.99448226 43.15048763 61.65337118 43.125 64.3125 C43.11496399 66.12043783 43.10583923 67.92838096 43.09765625 69.73632812 C43.07565959 74.15768312 43.04116294 78.57878358 43 83 C40.69 83 38.38 83 36 83 C35.98541748 81.87505127 35.97083496 80.75010254 35.95581055 79.59106445 C35.89772246 75.40682613 35.82049036 71.22312003 35.73754883 67.03930664 C35.70434886 65.23047542 35.67630159 63.42154182 35.65356445 61.61254883 C35.61992742 59.00818367 35.56760805 56.4047524 35.51171875 53.80078125 C35.50532883 52.99538406 35.4989389 52.18998688 35.49235535 51.36018372 C35.3728031 46.76747362 34.9330038 43.75058312 32 40 C27.94549547 37.27497659 23.71590256 37.37068192 19 38 C14.61891433 39.42898693 11.96325795 41.60673745 9.625 45.5625 C7.35675029 50.36072054 6.83440195 53.79593167 6.68359375 59.07421875 C6.66281265 59.7580513 6.64203156 60.44188385 6.62062073 61.1464386 C6.55533846 63.3266921 6.49633983 65.50706405 6.4375 67.6875 C6.39429447 69.16732986 6.35067953 70.64714783 6.30664062 72.12695312 C6.19967917 75.75117622 6.09835177 79.37553189 6 83 C4.02 83 2.04 83 0 83 C0 55.61 0 28.22 0 0 Z " fill="#FB2D54" transform="translate(270,411)"/>
<path d="M0 0 C5.05391018 3.44498746 9.72937328 8.28929525 11.67578125 14.21875 C13.26069925 22.73202385 12.83068919 31.04973638 8.0859375 38.421875 C3.25975437 44.13709187 -3.10503186 48.83690098 -10.67578125 49.7578125 C-18.93771268 49.86811866 -25.79483456 48.99374386 -32.20703125 43.43359375 C-38.13551667 37.18114737 -40.95308818 31.64426023 -41.3515625 23.046875 C-41.05344212 14.75683512 -38.69988558 8.68724368 -32.6015625 2.984375 C-22.69253611 -4.96533013 -11.2187329 -6.46257106 0 0 Z M-29.7265625 9.421875 C-34.31262714 15.71133508 -34.70715197 20.69916631 -33.9140625 28.421875 C-31.99325312 35.09013938 -27.93290212 39.02407993 -22.0546875 42.53125 C-17.26333614 44.52473195 -11.52685631 44.15644835 -6.59375 42.76953125 C-1.54425504 40.53277778 1.47604576 37.24961466 4.0859375 32.421875 C6.08964033 26.41076651 6.305379 18.86469474 4.1796875 12.86328125 C1.36853991 8.09694446 -2.38775781 4.50464076 -7.796875 2.84375 C-16.77242365 1.05526429 -23.56324854 2.36273052 -29.7265625 9.421875 Z " fill="#FB3157" transform="translate(242.9140625,445.578125)"/>
<path d="M0 0 C4.92239925 3.70714358 8.11960871 8.80346609 9.25390625 14.8671875 C9.9848571 23.83699869 10.25683088 31.63639193 4.25390625 38.8671875 C-1.03322832 44.68046895 -6.80742534 47.54955295 -14.62109375 48.1796875 C-15.99838005 48.11217347 -17.37409698 48.0053923 -18.74609375 47.8671875 C-19.55304688 47.78597656 -20.36 47.70476562 -21.19140625 47.62109375 C-28.50327686 46.53661141 -33.75877542 43.73138036 -38.31640625 37.8359375 C-43.28775631 30.22266998 -43.59236062 22.87457971 -42.74609375 13.8671875 C-40.43988664 6.11088556 -35.90276216 0.80269354 -28.94140625 -3.16015625 C-19.0520337 -7.61242563 -8.80615476 -5.71316528 0 0 Z M-33.18359375 8.2421875 C-37.02385575 13.86054342 -37.18699233 20.24597374 -36.74609375 26.8671875 C-35.34429846 32.97708146 -31.64050242 36.2217979 -26.6484375 39.73828125 C-21.93097401 42.53776164 -17.05838958 42.29638213 -11.74609375 41.8671875 C-5.71130822 40.1573316 -2.13863053 37.01376032 1.25390625 31.8671875 C4.02830317 26.0627325 4.40302557 19.73893611 2.56640625 13.55078125 C-0.00935688 7.89483471 -3.6435305 4.67701606 -8.99609375 1.5546875 C-18.45744219 -0.81064961 -26.57372268 0.92579815 -33.18359375 8.2421875 Z " fill="#FB2E54" transform="translate(370.74609375,447.1328125)"/>
<path d="M0 0 C2.31 0 4.62 0 7 0 C10.95907914 8.40166028 14.40826752 16.96249427 17.75 25.625 C18.72090503 28.13923291 19.69539906 30.65197782 20.671875 33.1640625 C21.0956543 34.26186035 21.51943359 35.3596582 21.95605469 36.49072266 C22.77024472 38.89732743 22.77024472 38.89732743 24 40 C24.44915771 38.82381104 24.89831543 37.64762207 25.36108398 36.43579102 C27.02261137 32.0869369 28.68764441 27.73943222 30.35375977 23.39233398 C31.0754264 21.50793707 31.79613192 19.6231718 32.51586914 17.73803711 C33.5484387 15.03402666 34.58441726 12.33134437 35.62109375 9.62890625 C35.94403915 8.78099014 36.26698456 7.93307404 36.59971619 7.0594635 C38.88612829 1.11387171 38.88612829 1.11387171 40 0 C42.33297433 -0.04092937 44.66705225 -0.04241723 47 0 C44.97185516 6.29819332 42.71047252 12.46817785 40.26953125 18.6171875 C39.91541672 19.51382111 39.56130219 20.41045471 39.19645691 21.33425903 C38.44879774 23.22558334 37.69994345 25.1164356 36.94995117 27.00683594 C35.82980494 29.83136436 34.7144138 32.65773467 33.59960938 35.484375 C31.7794032 40.09250084 29.93722878 44.69144386 28.08551025 49.2869873 C27.00018349 51.99954141 25.93789515 54.72040404 24.87646484 57.44238281 C24.19331496 59.15206547 23.50927312 60.86139207 22.82421875 62.5703125 C22.52699417 63.34921844 22.22976959 64.12812439 21.92353821 64.93063354 C19.82115268 70.09084916 17.60873626 72.8233092 13 76 C10.296875 76.7421875 10.296875 76.7421875 7.75 76.875 C6.89921875 76.93429687 6.0484375 76.99359375 5.171875 77.0546875 C3 77 3 77 1 76 C1 74.02 1 72.04 1 70 C1.60328125 70.05800781 2.2065625 70.11601563 2.828125 70.17578125 C3.62734375 70.22089844 4.4265625 70.26601563 5.25 70.3125 C6.03890625 70.37050781 6.8278125 70.42851563 7.640625 70.48828125 C11.15874416 69.76019367 12.06049629 67.94352954 14 65 C15.56057504 62.1128626 15.56057504 62.1128626 16.8125 59.0625 C17.25207031 58.06347656 17.69164062 57.06445312 18.14453125 56.03515625 C20.01558207 49.39677048 16.69369314 43.25523971 14.21875 37.1484375 C13.65843079 35.74375717 13.65843079 35.74375717 13.08679199 34.31069946 C11.89682357 31.3298441 10.69889885 28.3522735 9.5 25.375 C8.30230033 22.39012663 7.10633248 19.40458239 5.91320801 16.4178772 C5.17159825 14.56251323 4.42715382 12.70827922 3.67956543 10.85531616 C3.34251587 10.0140921 3.00546631 9.17286804 2.65820312 8.30615234 C2.36143677 7.56924164 2.06467041 6.83233093 1.75891113 6.0730896 C1.02408865 4.06580207 0.4768038 2.08214362 0 0 Z " fill="#FB3056" transform="translate(461,443)"/>
<path d="M0 0 C16.54147069 -0.02332889 33.08293606 -0.04097912 49.62441921 -0.05181217 C57.30438727 -0.05697515 64.98434513 -0.06401789 72.66430664 -0.07543945 C79.35577989 -0.08538623 86.04724576 -0.09185341 92.7387262 -0.09408849 C96.28395601 -0.09539561 99.82916468 -0.09848153 103.37438774 -0.10573006 C107.32568645 -0.1137438 111.2769642 -0.11399114 115.22827148 -0.11352539 C116.41222 -0.11712067 117.59616852 -0.12071594 118.81599426 -0.12442017 C119.88596649 -0.1230455 120.95593872 -0.12167084 122.05833435 -0.12025452 C122.99395423 -0.12117631 123.92957411 -0.1220981 124.8935461 -0.12304783 C127 0 127 0 128 1 C128.04063832 2.66617115 128.042721 4.33388095 128 6 C125.50330697 7.24834651 123.82179846 7.128608 121.02746582 7.13371277 C119.45002342 7.14011024 119.45002342 7.14011024 117.8407135 7.14663696 C116.68220383 7.14618378 115.52369415 7.14573059 114.33007812 7.14526367 C113.11380234 7.14862228 111.89752655 7.1519809 110.64439392 7.15544128 C107.30355649 7.16332859 103.96278119 7.1666197 100.62193871 7.16725707 C97.83597113 7.16820543 95.05000956 7.17188278 92.26404428 7.17542917 C85.69376733 7.18357637 79.12350408 7.18601312 72.55322266 7.18530273 C65.76741479 7.1847015 58.9816863 7.19526173 52.19589853 7.2110464 C46.37591377 7.22410384 40.55595502 7.22948741 34.73595572 7.22884732 C31.25721543 7.22859185 27.77854569 7.23147 24.29981995 7.24202538 C20.4231554 7.25346689 16.54660059 7.24897059 12.66992188 7.24291992 C11.5114122 7.24853943 10.35290253 7.25415894 9.1592865 7.25994873 C8.10765823 7.25575424 7.05602997 7.25155975 5.97253418 7.24723816 C4.59650654 7.24805531 4.59650654 7.24805531 3.19268036 7.24888897 C1 7 1 7 -1 5 C-0.625 2.375 -0.625 2.375 0 0 Z " fill="#FB3C60" transform="translate(253,366)"/>
<path d="M0 0 C2.31 0 4.62 0 7 0 C7 4.62 7 9.24 7 14 C11.62 14 16.24 14 21 14 C21 15.98 21 17.96 21 20 C16.38 20 11.76 20 7 20 C7.09353106 25.07234884 7.19962375 30.14422013 7.31738281 35.21606445 C7.35567345 36.94157708 7.39052621 38.66716956 7.421875 40.39282227 C7.46752404 42.87284895 7.52551781 45.35232591 7.5859375 47.83203125 C7.60326431 48.98998955 7.60326431 48.98998955 7.62094116 50.17134094 C7.72521273 53.95246674 7.8534589 55.78018835 10 59 C12.66653905 59.36460453 12.66653905 59.36460453 15.625 59.1875 C16.62789063 59.16042969 17.63078125 59.13335937 18.6640625 59.10546875 C19.82035156 59.05326172 19.82035156 59.05326172 21 59 C21.1875 61.375 21.1875 61.375 21 64 C16.94685541 66.7020964 13.7544315 66.52827017 9 66 C4.37156712 64.14862685 2.37609821 61.3115181 0 57 C-0.51643546 54.09186685 -0.46876429 51.26631619 -0.390625 48.3203125 C-0.38496521 47.50754852 -0.37930542 46.69478455 -0.37347412 45.85739136 C-0.35120838 43.27931055 -0.30103315 40.70265569 -0.25 38.125 C-0.2299222 36.36981184 -0.21167367 34.61460174 -0.1953125 32.859375 C-0.15137612 28.57237311 -0.08241911 24.28642773 0 20 C-3.63 20 -7.26 20 -11 20 C-11 18.02 -11 16.04 -11 14 C-7.37 14 -3.74 14 0 14 C0 9.38 0 4.76 0 0 Z " fill="#FB3258" transform="translate(435,429)"/>
<path d="M0 0 C13.21120389 1.14880034 21.56539886 7.75287049 29.96875 17.51953125 C31 19 31 19 31 21 C17.14 21 3.28 21 -11 21 C-8.78643989 16.57287977 -6.32550189 12.31798465 -3.83398438 8.04492188 C-2.29671589 5.38240695 -0.97526271 2.92578814 0 0 Z " fill="#FB2951" transform="translate(340,259)"/>
<path d="M0 0 C1.294174 2.56126064 2.58540784 5.12393358 3.875 7.6875 C4.23980469 8.40873047 4.60460937 9.12996094 4.98046875 9.87304688 C5.33496094 10.57880859 5.68945312 11.28457031 6.0546875 12.01171875 C6.54171143 12.97791138 6.54171143 12.97791138 7.03857422 13.96362305 C8.12500626 16.26477329 9.05491274 18.63728184 10 21 C-3.2 21 -16.4 21 -30 21 C-28.06383539 13.25534156 -21.85317461 8.37008532 -15.26953125 4.25390625 C-10.26989368 1.49162801 -5.78410188 -0.17950661 0 0 Z " fill="#FB2A51" transform="translate(293,259)"/>
<path d="M0 0 C0 2.31 0 4.62 0 7 C-0.65226562 7.01417969 -1.30453125 7.02835937 -1.9765625 7.04296875 C-8.14947995 7.36474296 -8.14947995 7.36474296 -13.5 10.1875 C-17.91530845 15.15472201 -18.30646053 20.36911376 -18.4140625 26.8046875 C-18.43342865 27.5286673 -18.4527948 28.25264709 -18.4727478 28.99856567 C-18.53209886 31.29059398 -18.57874878 33.58267374 -18.625 35.875 C-18.66322087 37.43752081 -18.70227494 39.00002148 -18.7421875 40.5625 C-18.83776308 44.37483465 -18.92195606 48.1872678 -19 52 C-21.31 52 -23.62 52 -26 52 C-26 35.17 -26 18.34 -26 1 C-24.02 1 -22.04 1 -20 1 C-19.67 3.64 -19.34 6.28 -19 9 C-18.29875 8.071875 -17.5975 7.14375 -16.875 6.1875 C-12.00062193 0.4119764 -7.21973882 -0.37343477 0 0 Z " fill="#FB3358" transform="translate(421,442)"/>
<path d="M0 0 C1.98 0.495 1.98 0.495 4 1 C4.04951788 5.4840341 4.08577526 9.96792239 4.10986328 14.45214844 C4.11990744 15.97691623 4.13354531 17.50166484 4.15087891 19.02636719 C4.17519738 21.22075138 4.18649889 23.41488042 4.1953125 25.609375 C4.20578613 26.92905273 4.21625977 28.24873047 4.22705078 29.60839844 C4.0179275 32.73220559 3.66605136 34.40580238 2 37 C-0.94549981 32.58175029 -1.08173971 29.97877292 -0.87890625 24.8046875 C-0.85529526 24.09724396 -0.83168427 23.38980042 -0.80735779 22.66091919 C-0.73071166 20.39874245 -0.64669188 18.13690727 -0.5625 15.875 C-0.50928023 14.3424647 -0.45653982 12.80991266 -0.40429688 11.27734375 C-0.27509533 7.51801239 -0.13927963 3.75897092 0 0 Z " fill="#FB3B5F" transform="translate(275,195)"/>
<path d="M0 0 C5.28 0 10.56 0 16 0 C14 5 14 5 13 6 C12.63239269 8.32817964 12.29758419 10.6618385 12 13 C9.36 13 6.72 13 4 13 C3.896875 11.906875 3.79375 10.81375 3.6875 9.6875 C2.99088659 5.951119 2.68320706 5.33322353 0 3 C0 2.01 0 1.02 0 0 Z " fill="#FB3359" transform="translate(308,268)"/>
<path d="M0 0 C3.53571429 0.53571429 3.53571429 0.53571429 5 2 C5.125 4.5 5.125 4.5 5 7 C4 8 4 8 1.5 8.125 C-1 8 -1 8 -2 7 C-2.1875 4.5625 -2.1875 4.5625 -2 2 C-1.34 1.34 -0.68 0.68 0 0 Z " fill="#FB345A" transform="translate(315,319)"/>
</svg>
