<svg version="1.1" id="Layer_1" xmlns="http://www.w3.org/2000/svg" xmlns:xlink="http://www.w3.org/1999/xlink" x="0px" y="0px"
	 width="100%" viewBox="0 0 241 243" enable-background="new 0 0 241 243" xml:space="preserve">
<path fill="#000000" opacity="1.000000" stroke="none" 
	d="
M1.000000,83.000000 
	C1.000000,55.333340 1.000000,28.166676 1.000000,1.000011 
	C81.333313,1.000007 161.666626,1.000007 241.999954,1.000004 
	C241.999969,81.999962 241.999969,162.999924 241.999985,243.999908 
	C161.666718,243.999939 81.333427,243.999939 1.000072,243.999969 
	C1.000000,190.500000 1.000000,137.000000 1.000000,83.000000 
M11.014751,35.962986 
	C11.010051,81.676743 10.993323,127.390503 11.007398,173.104263 
	C11.012105,188.393677 11.095476,203.683060 11.024714,219.708618 
	C14.125850,228.130447 19.102407,234.159378 29.976295,233.978470 
	C64.307854,233.985626 98.639435,234.012802 132.970978,233.993118 
	C157.299850,233.979187 181.628677,233.901932 206.800262,233.971588 
	C215.399643,234.077042 224.638748,225.589966 225.768738,216.774002 
	C225.511826,213.883652 225.035660,210.993607 225.031403,208.102890 
	C224.979935,173.190201 225.015732,138.277374 224.991821,103.364632 
	C224.976913,81.589035 224.899277,59.813492 224.982574,37.222580 
	C224.933716,29.857834 219.442230,23.826229 209.732178,20.201948 
	C208.409531,20.134142 207.086884,20.007393 205.764221,20.007086 
	C164.489731,19.997480 123.215225,19.985889 81.940742,20.007519 
	C63.304607,20.017284 44.668499,20.096941 25.330351,20.231287 
	C18.922470,23.555981 11.592854,25.998453 11.014751,35.962986 
z"/>
<path fill="#D24D5C" opacity="1.000000" stroke="none" 
	d="
M29.054743,233.839600 
	C19.102407,234.159378 14.125850,228.130447 11.365757,219.036377 
	C11.807932,217.546646 11.997454,216.729202 11.997593,215.911713 
	C12.007606,157.035477 12.008435,98.159233 11.963574,39.283028 
	C11.962497,37.868252 11.437700,36.453873 11.157175,35.039310 
	C11.592854,25.998453 18.922470,23.555981 25.985371,20.469500 
	C27.457874,20.808836 28.275360,20.998453 29.092848,20.998472 
	C89.458160,20.999838 149.823471,20.986195 210.188782,20.973751 
	C219.442230,23.826229 224.933716,29.857834 224.635880,37.934334 
	C224.197037,39.133656 224.024307,39.621193 224.024155,40.108788 
	C224.006332,97.932777 223.994858,155.756775 224.040054,213.580734 
	C224.041000,214.786392 224.706085,215.991531 225.061340,217.196899 
	C224.638748,225.589966 215.399643,234.077042 206.075958,233.631866 
	C204.366318,233.195496 203.381012,233.014526 202.395660,233.014297 
	C146.030273,233.000641 89.664886,232.995926 33.299538,233.036957 
	C31.884411,233.037994 30.469666,233.560364 29.054743,233.839600 
M28.810034,40.921074 
	C28.870424,61.343338 28.930815,81.765602 29.038696,102.551819 
	C29.038696,102.551819 28.904078,102.893280 28.330788,103.527802 
	C28.221601,104.345222 28.017302,105.162590 28.016922,105.980064 
	C28.000769,140.747375 27.993776,175.514694 28.039145,210.281952 
	C28.040770,211.527466 28.581480,212.772293 29.046206,214.537506 
	C29.082855,214.716721 29.119507,214.895950 29.723877,215.651199 
	C31.369421,215.766678 33.014931,215.982529 34.660515,215.983078 
	C87.631462,216.000565 140.602417,216.001511 193.573364,215.988205 
	C197.399811,215.987244 201.226227,215.859741 205.569885,215.783218 
	C205.713699,215.495895 205.857529,215.208588 206.007553,215.007629 
	C206.007553,215.007629 205.925552,215.035461 206.664200,214.588242 
	C206.743073,213.930237 206.890854,213.272263 206.890976,212.614243 
	C206.901321,155.973297 206.859818,99.332253 206.982574,42.691566 
	C206.991653,38.505028 205.331757,37.692619 201.649597,37.695992 
	C165.833954,37.728786 130.018219,37.608952 94.202469,37.589779 
	C74.212822,37.579075 54.222939,37.648708 34.233837,37.783173 
	C32.817280,37.792698 31.406336,38.636620 30.001965,39.005718 
	C30.001965,39.005718 30.086679,39.026909 29.467785,38.899944 
	C29.314058,39.266911 29.160334,39.633881 28.810034,40.921074 
z"/>
<path fill="#DB737E" opacity="1.000000" stroke="none" 
	d="
M209.960480,20.587849 
	C149.823471,20.986195 89.458160,20.999838 29.092848,20.998472 
	C28.275360,20.998453 27.457874,20.808836 26.336384,20.426300 
	C44.668499,20.096941 63.304607,20.017284 81.940742,20.007519 
	C123.215225,19.985889 164.489731,19.997480 205.764221,20.007086 
	C207.086884,20.007393 208.409531,20.134142 209.960480,20.587849 
z"/>
<path fill="#DB707C" opacity="1.000000" stroke="none" 
	d="
M11.085963,35.501148 
	C11.437700,36.453873 11.962497,37.868252 11.963574,39.283028 
	C12.008435,98.159233 12.007606,157.035477 11.997593,215.911713 
	C11.997454,216.729202 11.807932,217.546646 11.424845,218.668289 
	C11.095476,203.683060 11.012105,188.393677 11.007398,173.104263 
	C10.993323,127.390503 11.010051,81.676743 11.085963,35.501148 
z"/>
<path fill="#DF818C" opacity="1.000000" stroke="none" 
	d="
M225.415039,216.985443 
	C224.706085,215.991531 224.041000,214.786392 224.040054,213.580734 
	C223.994858,155.756775 224.006332,97.932777 224.024155,40.108788 
	C224.024307,39.621193 224.197037,39.133656 224.569489,38.342010 
	C224.899277,59.813492 224.976913,81.589035 224.991821,103.364632 
	C225.015732,138.277374 224.979935,173.190201 225.031403,208.102890 
	C225.035660,210.993607 225.511826,213.883652 225.415039,216.985443 
z"/>
<path fill="#DE7B84" opacity="1.000000" stroke="none" 
	d="
M29.515518,233.909027 
	C30.469666,233.560364 31.884411,233.037994 33.299538,233.036957 
	C89.664886,232.995926 146.030273,233.000641 202.395660,233.014297 
	C203.381012,233.014526 204.366318,233.195496 205.654602,233.572540 
	C181.628677,233.901932 157.299850,233.979187 132.970978,233.993118 
	C98.639435,234.012802 64.307854,233.985626 29.515518,233.909027 
z"/>
<path fill="#000000" opacity="1.000000" stroke="none" 
	d="
M28.904076,102.893280 
	C28.904078,102.893280 29.038696,102.551819 29.403900,102.145088 
	C29.793087,81.160934 29.817068,60.583515 29.921780,39.766144 
	C30.030565,39.359764 30.058622,39.193336 30.086679,39.026909 
	C30.086679,39.026909 30.001965,39.005718 30.465656,39.013397 
	C88.842743,39.021072 146.756134,39.021072 204.978302,39.021072 
	C204.978302,41.302345 204.978302,43.101471 204.978302,44.900597 
	C204.978302,91.044777 204.921127,137.189087 205.021439,183.333054 
	C205.044418,193.901138 205.609802,204.468018 205.925552,215.035461 
	C205.925552,215.035461 206.007553,215.007629 205.759338,215.020569 
	C205.351517,215.084412 205.191895,215.135330 204.568527,215.100555 
	C145.788589,215.034943 87.472374,215.055054 29.156158,215.075180 
	C29.119507,214.895950 29.082855,214.716721 29.013964,213.807098 
	C28.955839,176.348877 28.929958,139.621078 28.904076,102.893280 
M76.007538,121.007538 
	C76.007538,121.007538 76.054787,121.082497 76.574852,120.953812 
	C76.744034,120.654198 76.913208,120.354584 77.007523,120.007523 
	C77.007523,120.007523 77.054817,120.082489 77.574883,119.953796 
	C77.744049,119.654190 77.913216,119.354584 78.007515,119.007523 
	C78.007515,119.007523 78.054832,119.082474 78.574890,118.953781 
	C78.744057,118.654167 78.913223,118.354561 79.007523,118.007530 
	C79.007523,118.007530 79.054817,118.082474 79.574898,117.953789 
	C79.744064,117.654160 79.913231,117.354530 80.007545,117.007545 
	C80.007545,117.007545 80.054779,117.082474 80.574883,116.953789 
	C80.744057,116.654144 80.913231,116.354500 81.007561,116.007553 
	C81.007561,116.007553 81.054741,116.082481 81.574867,115.953796 
	C81.744049,115.654144 81.913223,115.354500 82.007553,115.007584 
	C82.007553,115.007584 82.054718,115.082497 82.574844,114.953804 
	C82.744034,114.654152 82.913223,114.354500 83.007561,114.007584 
	C83.007561,114.007584 83.054710,114.082504 83.574860,113.953819 
	C83.744049,113.654160 83.913239,113.354500 84.007584,113.007591 
	C84.007584,113.007591 84.054703,113.082504 84.574860,112.953796 
	C84.744049,112.654121 84.913239,112.354446 85.004555,111.999168 
	C85.004555,111.999168 85.086479,112.053757 85.683197,111.862953 
	C85.806404,111.264107 85.929611,110.665253 86.699677,109.828964 
	C87.411934,109.130310 88.140373,108.447311 88.833794,107.730446 
	C93.112785,103.306671 93.297882,97.650566 89.301849,93.716751 
	C85.373589,89.849663 79.520454,89.957405 75.338402,94.200775 
	C66.362015,103.308777 57.600410,112.631760 48.497906,121.610268 
	C45.530453,124.537292 45.735226,127.649544 47.217194,130.540451 
	C48.507160,133.056808 51.024288,134.944092 53.011887,137.724121 
	C53.313202,138.167358 53.614517,138.610596 53.999847,139.002884 
	C53.999847,139.002884 53.915970,139.050232 54.045422,139.573288 
	C54.346737,139.743469 54.648056,139.913666 54.990025,140.009979 
	C54.990025,140.009979 54.916054,140.050446 55.045471,140.573380 
	C55.346718,140.743515 55.647961,140.913651 55.990131,141.009872 
	C55.990131,141.009872 55.916130,141.050644 56.045525,141.573486 
	C56.346729,141.743576 56.647934,141.913666 56.990166,142.009811 
	C56.990166,142.009811 56.916176,142.050751 57.045563,142.573547 
	C57.346767,142.743622 57.647972,142.913681 57.990166,143.009796 
	C57.990166,143.009796 57.916187,143.050751 58.045589,143.573593 
	C58.346813,143.743668 58.648037,143.913727 58.990143,144.009842 
	C58.990143,144.009842 58.916187,144.050690 59.045582,144.573578 
	C59.346844,144.743652 59.648106,144.913727 59.990101,145.009903 
	C59.990101,145.009903 59.916168,145.050583 60.045570,145.573547 
	C60.346867,145.743637 60.648163,145.913742 60.990044,146.009964 
	C60.990044,146.009964 60.916142,146.050491 61.045551,146.573502 
	C61.346878,146.743622 61.648205,146.913742 61.989990,147.010010 
	C61.989990,147.010010 61.916107,147.050415 62.045536,147.573471 
	C62.346882,147.743607 62.648232,147.913742 62.989952,148.010025 
	C62.989952,148.010025 62.916077,148.050354 63.045509,148.573425 
	C63.346867,148.743576 63.648220,148.913727 63.989960,149.010056 
	C63.989960,149.010056 63.916065,149.050323 64.045479,149.573395 
	C64.346817,149.743546 64.648155,149.913696 64.989998,150.010010 
	C64.989998,150.010010 64.916077,150.050369 65.045464,150.573364 
	C65.346748,150.743500 65.648026,150.913635 65.990089,151.009872 
	C65.990089,151.009872 65.916122,151.050522 66.045464,151.573380 
	C66.346657,151.743484 66.647842,151.913574 66.990234,152.009750 
	C66.990234,152.009750 66.916206,152.050766 67.045494,152.573441 
	C67.346573,152.743500 67.647652,152.913544 67.990402,153.009583 
	C67.990402,153.009583 67.916306,153.051071 68.045563,153.573578 
	C68.346565,153.743576 68.647568,153.913559 68.990494,154.009491 
	C68.990494,154.009491 68.916359,154.051270 69.045616,154.573669 
	C69.346573,154.743607 69.647522,154.913559 69.990547,155.009430 
	C69.990547,155.009430 69.916405,155.051392 70.045662,155.573730 
	C70.346581,155.743652 70.647499,155.913574 70.990593,156.009384 
	C70.990593,156.009384 70.916428,156.051453 71.045662,156.573761 
	C71.346565,156.743668 71.647469,156.913574 71.998169,157.000610 
	C71.998169,157.000610 71.945946,157.084351 72.131050,157.676498 
	C72.722801,157.789627 73.314552,157.902756 74.171043,158.679092 
	C74.751419,159.266129 75.299011,159.890457 75.917519,160.434097 
	C79.715378,163.772171 85.544167,163.950562 88.652252,160.843750 
	C93.149521,156.348312 93.413773,152.371658 89.155495,147.708511 
	C83.164383,141.147781 76.993309,134.751419 71.005920,127.553627 
	C71.023041,127.064262 71.040169,126.574898 71.005013,126.004463 
	C71.005013,126.004463 71.054176,126.082695 71.574562,125.953972 
	C71.743866,125.654205 71.913162,125.354431 72.007690,125.007706 
	C72.007690,125.007706 72.054443,125.082611 72.574692,124.953896 
	C72.743942,124.654198 72.913185,124.354500 73.007607,124.007629 
	C73.007607,124.007629 73.054619,124.082558 73.574791,123.953850 
	C73.744003,123.654198 73.913216,123.354538 74.007584,123.007568 
	C74.007584,123.007568 74.054718,123.082520 74.574844,122.953819 
	C74.744034,122.654182 74.913223,122.354546 75.007561,122.007568 
	C75.007561,122.007568 75.054756,122.082512 75.574852,121.953812 
	C75.744034,121.654190 75.913216,121.354568 76.007538,121.007538 
M181.009445,113.990547 
	C181.009445,113.990547 181.083817,113.948235 180.949783,113.429260 
	C180.650467,113.258247 180.351135,113.087242 180.009476,112.990517 
	C180.009476,112.990517 180.083832,112.948280 179.949783,112.429276 
	C179.650452,112.258263 179.351120,112.087250 179.009521,111.990509 
	C179.009521,111.990509 179.083847,111.948311 178.949799,111.429283 
	C178.650452,111.258263 178.351120,111.087242 178.009521,110.990501 
	C178.009521,110.990501 178.083847,110.948326 177.949799,110.429291 
	C177.650452,110.258270 177.351105,110.087250 177.009521,109.990494 
	C177.009521,109.990494 177.083847,109.948349 176.949799,109.429283 
	C176.650421,109.258263 176.351059,109.087234 176.009537,108.990494 
	C176.009537,108.990494 176.083847,108.948395 175.949799,108.429291 
	C175.650406,108.258263 175.351028,108.087234 175.009567,107.990456 
	C175.009567,107.990456 175.083847,107.948456 174.949814,107.429337 
	C174.650421,107.258301 174.351013,107.087265 174.009537,106.990448 
	C174.009537,106.990448 174.083832,106.948486 173.949844,106.429375 
	C173.650482,106.258347 173.351105,106.087318 173.009491,105.990501 
	C173.009491,105.990501 173.083801,105.948410 172.949875,105.429405 
	C172.650574,105.258392 172.351257,105.087379 172.009399,104.990631 
	C172.009399,104.990631 172.083771,104.948250 171.949875,104.429382 
	C171.650681,104.258408 171.351471,104.087433 171.009232,103.990791 
	C171.009232,103.990791 171.083679,103.947945 170.949783,103.429237 
	C170.650650,103.258316 170.351517,103.087395 170.009171,102.990860 
	C170.009171,102.990860 170.083633,102.947792 169.949738,102.429161 
	C169.650650,102.258278 169.351562,102.087387 169.009109,101.990891 
	C169.009109,101.990891 169.083603,101.947701 168.949722,101.429131 
	C168.650665,101.258255 168.351624,101.087387 168.009094,100.990944 
	C168.009094,100.990944 168.083603,100.947617 167.949738,100.429123 
	C167.650726,100.258263 167.351730,100.087410 167.009003,99.991020 
	C167.009003,99.991020 167.083572,99.947479 166.949722,99.429100 
	C166.650772,99.258263 166.351822,99.087425 166.008926,98.991096 
	C166.008926,98.991096 166.083527,98.947311 165.949692,98.429031 
	C165.650803,98.258224 165.351913,98.087425 164.998413,97.995026 
	C164.998413,97.995026 165.051147,97.912193 164.846344,97.307816 
	C164.232513,97.253731 163.618668,97.199646 162.384918,96.829651 
	C161.565186,96.002609 160.654175,95.246979 159.941559,94.336136 
	C156.895859,90.443245 149.123123,89.694016 145.517197,93.831261 
	C141.754913,98.147934 141.900406,102.464622 146.700912,107.181396 
	C153.165909,113.533607 159.683807,119.831985 165.982056,125.961807 
	C159.088593,133.403046 152.758316,140.187958 146.485229,147.025345 
	C142.482452,151.388184 142.053726,156.109909 145.205734,159.779007 
	C148.286057,163.364670 154.448639,164.685516 157.713058,161.570312 
	C167.875153,151.872711 177.839798,141.950745 187.496201,131.751465 
	C190.340851,128.746887 189.748032,124.661583 186.890442,121.359436 
	C185.591675,119.858597 184.199814,118.438316 182.978424,116.354744 
	C182.681412,115.886230 182.384399,115.417717 182.003662,115.000610 
	C182.003662,115.000610 182.083817,114.948257 181.949814,114.429283 
	C181.650497,114.258270 181.351196,114.087265 181.009445,113.990547 
M137.118729,75.975830 
	C132.068954,75.150261 129.014633,77.706741 127.021812,81.987411 
	C125.935593,84.320633 124.951057,86.700966 123.893021,89.047592 
	C116.337753,105.804420 108.693207,122.521645 101.250160,139.328125 
	C97.568619,147.641068 94.078880,156.049744 90.838997,164.543503 
	C88.875641,169.690674 91.240349,175.562195 95.822746,176.875809 
	C100.891212,178.328735 104.966217,177.511856 107.472939,172.071854 
	C111.891457,162.482941 116.608871,153.028259 120.873421,143.372620 
	C128.610458,125.854683 136.172546,108.258408 143.672638,90.637367 
	C146.809174,83.268234 145.281250,79.724174 137.118729,75.975830 
z"/>
<path fill="#FBF0F1" opacity="1.000000" stroke="none" 
	d="
M206.294876,214.811859 
	C205.609802,204.468018 205.044418,193.901138 205.021439,183.333054 
	C204.921127,137.189087 204.978302,91.044777 204.978302,44.900597 
	C204.978302,43.101471 204.978302,41.302345 204.978302,39.021072 
	C146.756134,39.021072 88.842743,39.021072 30.461065,39.056816 
	C31.406336,38.636620 32.817280,37.792698 34.233837,37.783173 
	C54.222939,37.648708 74.212822,37.579075 94.202469,37.589779 
	C130.018219,37.608952 165.833954,37.728786 201.649597,37.695992 
	C205.331757,37.692619 206.991653,38.505028 206.982574,42.691566 
	C206.859818,99.332253 206.901321,155.973297 206.890976,212.614243 
	C206.890854,213.272263 206.743073,213.930237 206.294876,214.811859 
z"/>
<path fill="#F2CDD1" opacity="1.000000" stroke="none" 
	d="
M29.440018,215.363190 
	C87.472374,215.055054 145.788589,215.034943 204.573395,215.251770 
	C205.042007,215.488693 205.052658,215.791077 205.052658,215.791077 
	C201.226227,215.859741 197.399811,215.987244 193.573364,215.988205 
	C140.602417,216.001511 87.631462,216.000565 34.660515,215.983078 
	C33.014931,215.982529 31.369421,215.766678 29.440018,215.363190 
z"/>
<path fill="#E28D96" opacity="1.000000" stroke="none" 
	d="
M28.617432,103.210541 
	C28.929958,139.621078 28.955839,176.348877 28.926334,213.547058 
	C28.581480,212.772293 28.040770,211.527466 28.039145,210.281952 
	C27.993776,175.514694 28.000769,140.747375 28.016922,105.980064 
	C28.017302,105.162590 28.221601,104.345222 28.617432,103.210541 
z"/>
<path fill="#FFFDFE" opacity="1.000000" stroke="none" 
	d="
M29.841051,40.006092 
	C29.817068,60.583515 29.793087,81.160934 29.380154,101.963112 
	C28.930815,81.765602 28.870424,61.343338 29.116905,40.462658 
	C29.423779,40.004242 29.841051,40.006092 29.841051,40.006092 
z"/>
<path fill="#FBF0F1" opacity="1.000000" stroke="none" 
	d="
M29.921780,39.766144 
	C29.841051,40.006092 29.423779,40.004242 29.215193,40.002544 
	C29.160334,39.633881 29.314058,39.266911 29.777233,38.963425 
	C30.058622,39.193336 30.030565,39.359764 29.921780,39.766144 
z"/>
<path fill="#FBF0F1" opacity="1.000000" stroke="none" 
	d="
M205.311279,215.787140 
	C205.052658,215.791077 205.042007,215.488693 205.037140,215.337479 
	C205.191895,215.135330 205.351517,215.084412 205.756226,214.977386 
	C205.857529,215.208588 205.713699,215.495895 205.311279,215.787140 
z"/>
<path fill="#D34F5E" opacity="1.000000" stroke="none" 
	d="
M137.526855,75.998077 
	C145.281250,79.724174 146.809174,83.268234 143.672638,90.637367 
	C136.172546,108.258408 128.610458,125.854683 120.873421,143.372620 
	C116.608871,153.028259 111.891457,162.482941 107.472939,172.071854 
	C104.966217,177.511856 100.891212,178.328735 95.822746,176.875809 
	C91.240349,175.562195 88.875641,169.690674 90.838997,164.543503 
	C94.078880,156.049744 97.568619,147.641068 101.250160,139.328125 
	C108.693207,122.521645 116.337753,105.804420 123.893021,89.047592 
	C124.951057,86.700966 125.935593,84.320633 127.021812,81.987411 
	C129.014633,77.706741 132.068954,75.150261 137.526855,75.998077 
z"/>
<path fill="#D34F5E" opacity="1.000000" stroke="none" 
	d="
M182.850174,116.981499 
	C184.199814,118.438316 185.591675,119.858597 186.890442,121.359436 
	C189.748032,124.661583 190.340851,128.746887 187.496201,131.751465 
	C177.839798,141.950745 167.875153,151.872711 157.713058,161.570312 
	C154.448639,164.685516 148.286057,163.364670 145.205734,159.779007 
	C142.053726,156.109909 142.482452,151.388184 146.485229,147.025345 
	C152.758316,140.187958 159.088593,133.403046 165.982056,125.961807 
	C159.683807,119.831985 153.165909,113.533607 146.700912,107.181396 
	C141.900406,102.464622 141.754913,98.147934 145.517197,93.831261 
	C149.123123,89.694016 156.895859,90.443245 159.941559,94.336136 
	C160.654175,95.246979 161.565186,96.002609 162.858109,97.318619 
	C163.904587,97.842453 164.477859,97.877327 165.051147,97.912193 
	C165.051147,97.912193 164.998413,97.995026 164.844666,98.346771 
	C165.155136,98.781441 165.619324,98.864372 166.083527,98.947311 
	C166.083527,98.947311 166.008926,98.991096 165.850510,99.344551 
	C166.155914,99.781166 166.619751,99.864326 167.083572,99.947479 
	C167.083572,99.947479 167.009003,99.991020 166.851166,100.344284 
	C167.156754,100.780914 167.620178,100.864265 168.083603,100.947617 
	C168.083603,100.947617 168.009094,100.990944 167.851776,101.344109 
	C168.157501,101.780746 168.620560,101.864227 169.083603,101.947701 
	C169.083603,101.947701 169.009109,101.990891 168.852142,102.343933 
	C169.158005,102.780579 169.620819,102.864182 170.083633,102.947792 
	C170.083633,102.947792 170.009171,102.990860 169.852570,103.343643 
	C170.158524,103.780266 170.621109,103.864105 171.083679,103.947945 
	C171.083679,103.947945 171.009232,103.990791 170.853180,104.343071 
	C171.159332,104.779648 171.621552,104.863945 172.083771,104.948250 
	C172.083771,104.948250 172.009399,104.990631 171.854584,105.342659 
	C172.161118,105.779259 172.622452,105.863838 173.083801,105.948410 
	C173.083801,105.948410 173.009491,105.990501 172.855621,106.342377 
	C173.162445,106.778999 173.623138,106.863739 174.083832,106.948486 
	C174.083832,106.948486 174.009537,106.990448 173.856186,107.342323 
	C174.163177,107.778954 174.623505,107.863701 175.083847,107.948456 
	C175.083847,107.948456 175.009567,107.990456 174.856262,108.342369 
	C175.163269,108.778984 175.623550,108.863693 176.083847,108.948395 
	C176.083847,108.948395 176.009537,108.990494 175.856110,109.342438 
	C176.163071,109.779037 176.623459,109.863693 177.083847,109.948349 
	C177.083847,109.948349 177.009521,109.990494 176.855896,110.342468 
	C177.162811,110.779068 177.623322,110.863693 178.083847,110.948326 
	C178.083847,110.948326 178.009521,110.990501 177.855835,111.342499 
	C178.162720,111.779099 178.623291,111.863701 179.083847,111.948311 
	C179.083847,111.948311 179.009521,111.990509 178.855774,112.342560 
	C179.162628,112.779160 179.623230,112.863716 180.083832,112.948273 
	C180.083832,112.948280 180.009476,112.990517 179.855637,113.342651 
	C180.162476,113.779266 180.623138,113.863747 181.083817,113.948235 
	C181.083817,113.948235 181.009445,113.990547 180.855377,114.342636 
	C181.162155,114.779236 181.622986,114.863747 182.083817,114.948257 
	C182.083817,114.948257 182.003662,115.000610 181.742004,115.190887 
	C181.936966,115.914604 182.393570,116.448051 182.850174,116.981499 
z"/>
<path fill="#D24D5C" opacity="1.000000" stroke="none" 
	d="
M52.999146,137.109344 
	C51.024288,134.944092 48.507160,133.056808 47.217194,130.540451 
	C45.735226,127.649544 45.530453,124.537292 48.497906,121.610268 
	C57.600410,112.631760 66.362015,103.308777 75.338402,94.200775 
	C79.520454,89.957405 85.373589,89.849663 89.301849,93.716751 
	C93.297882,97.650566 93.112785,103.306671 88.833794,107.730446 
	C88.140373,108.447311 87.411934,109.130310 85.998093,110.041008 
	C85.226509,110.853287 85.156494,111.453522 85.086479,112.053757 
	C85.086479,112.053757 85.004555,111.999168 84.651711,111.842934 
	C84.217484,112.151970 84.136093,112.617233 84.054703,113.082504 
	C84.054703,113.082504 84.007584,113.007591 83.653206,112.846962 
	C83.217461,113.151726 83.136086,113.617111 83.054710,114.082504 
	C83.054710,114.082504 83.007561,114.007584 82.653160,113.846878 
	C82.217415,114.151619 82.136063,114.617058 82.054718,115.082497 
	C82.054718,115.082497 82.007553,115.007584 81.653122,114.846832 
	C81.217369,115.151543 81.136055,115.617012 81.054741,116.082481 
	C81.054741,116.082481 81.007561,116.007553 80.653053,115.846718 
	C80.217293,116.151413 80.136032,116.616943 80.054779,117.082474 
	C80.054779,117.082474 80.007545,117.007545 79.652992,116.846565 
	C79.217232,117.151215 79.136024,117.616844 79.054817,118.082474 
	C79.054817,118.082474 79.007523,118.007530 78.652969,117.846420 
	C78.217216,118.151024 78.136024,118.616753 78.054825,119.082474 
	C78.054832,119.082474 78.007515,119.007523 77.653015,118.846359 
	C77.217278,119.150955 77.136047,119.616722 77.054825,120.082489 
	C77.054817,120.082489 77.007523,120.007523 76.653076,119.846420 
	C76.217346,120.151047 76.136070,120.616768 76.054787,121.082497 
	C76.054787,121.082497 76.007538,121.007538 75.653145,120.846558 
	C75.217422,121.151222 75.136093,121.616867 75.054764,122.082512 
	C75.054756,122.082512 75.007561,122.007568 74.653229,121.846741 
	C74.217499,122.151451 74.136108,122.616982 74.054718,123.082520 
	C74.054718,123.082520 74.007584,123.007568 73.653419,122.846924 
	C73.217712,123.151703 73.136169,123.617134 73.054626,124.082558 
	C73.054619,124.082558 73.007607,124.007629 72.653748,123.847336 
	C72.218071,124.152229 72.136261,124.617424 72.054443,125.082611 
	C72.054443,125.082611 72.007690,125.007706 71.654251,124.848022 
	C71.218605,125.153122 71.136391,125.617905 71.054176,126.082695 
	C71.054176,126.082695 71.005013,126.004463 70.793045,125.742271 
	C70.687111,126.414970 70.793152,127.349869 70.899185,128.284760 
	C76.993309,134.751419 83.164383,141.147781 89.155495,147.708511 
	C93.413773,152.371658 93.149521,156.348312 88.652252,160.843750 
	C85.544167,163.950562 79.715378,163.772171 75.917519,160.434097 
	C75.299011,159.890457 74.751419,159.266129 73.932579,157.986343 
	C73.111389,157.223846 72.528671,157.154099 71.945946,157.084351 
	C71.945946,157.084351 71.998169,157.000610 72.140991,156.656158 
	C71.828011,156.224976 71.372223,156.138214 70.916428,156.051453 
	C70.916428,156.051453 70.990593,156.009384 71.136963,155.660706 
	C70.827690,155.225143 70.372047,155.138275 69.916405,155.051392 
	C69.916405,155.051392 69.990547,155.009430 70.136642,154.660950 
	C69.827278,154.225403 69.371819,154.138336 68.916359,154.051270 
	C68.916359,154.051270 68.990494,154.009491 69.136154,153.661316 
	C68.826645,153.225784 68.371475,153.138428 67.916306,153.051071 
	C67.916306,153.051071 67.990402,153.009583 68.135315,152.661911 
	C67.825554,152.226410 67.370880,152.138580 66.916206,152.050751 
	C66.916206,152.050766 66.990234,152.009750 67.133926,151.662506 
	C66.823792,151.227005 66.369957,151.138763 65.916122,151.050507 
	C65.916122,151.050522 65.990089,151.009872 66.132675,150.662872 
	C65.822205,150.227371 65.369141,150.138870 64.916077,150.050354 
	C64.916077,150.050369 64.989998,150.010010 65.131821,149.663071 
	C64.821121,149.227539 64.368591,149.138931 63.916065,149.050323 
	C63.916065,149.050323 63.989960,149.010056 64.131462,148.663086 
	C63.820671,148.227509 63.368374,148.138931 62.916077,148.050354 
	C62.916077,148.050354 62.989952,148.010025 63.131485,147.662964 
	C62.820713,147.227402 62.368408,147.138901 61.916107,147.050415 
	C61.916107,147.050415 61.989990,147.010010 62.131752,146.662781 
	C61.821056,146.227188 61.368599,146.138840 60.916142,146.050491 
	C60.916142,146.050491 60.990044,146.009964 61.132149,145.662567 
	C60.821556,145.226990 60.368862,145.138779 59.916168,145.050583 
	C59.916168,145.050583 59.990101,145.009903 60.132576,144.662384 
	C59.822094,144.226807 59.369141,144.138748 58.916187,144.050690 
	C58.916187,144.050690 58.990143,144.009842 59.132973,143.662262 
	C58.822594,143.226700 58.369392,143.138733 57.916187,143.050751 
	C57.916187,143.050751 57.990166,143.009796 58.133255,142.662262 
	C57.822956,142.226730 57.369564,142.138733 56.916176,142.050751 
	C56.916176,142.050751 56.990166,142.009811 57.133278,141.662460 
	C56.822968,141.226959 56.369549,141.138809 55.916130,141.050659 
	C55.916130,141.050644 55.990131,141.009872 56.132858,140.662872 
	C55.822407,140.227386 55.369232,140.138916 54.916054,140.050446 
	C54.916054,140.050446 54.990025,140.009979 55.131935,139.663391 
	C54.821224,139.227936 54.368595,139.139084 53.915970,139.050232 
	C53.915970,139.050232 53.999847,139.002884 54.255096,138.792618 
	C54.006611,138.091354 53.502876,137.600357 52.999146,137.109344 
z"/>
<path fill="#FBF1F2" opacity="1.000000" stroke="none" 
	d="
M70.952560,127.919189 
	C70.793152,127.349869 70.687111,126.414970 70.819183,125.782806 
	C71.040169,126.574898 71.023041,127.064262 70.952560,127.919189 
z"/>
<path fill="#FDF6F7" opacity="1.000000" stroke="none" 
	d="
M164.948746,97.610001 
	C164.477859,97.877327 163.904587,97.842453 163.168060,97.476578 
	C163.618668,97.199646 164.232513,97.253731 164.948746,97.610001 
z"/>
<path fill="#FBF1F2" opacity="1.000000" stroke="none" 
	d="
M85.384842,111.958359 
	C85.156494,111.453522 85.226509,110.853287 85.674667,110.159729 
	C85.929611,110.665253 85.806404,111.264107 85.384842,111.958359 
z"/>
<path fill="#FDF6F7" opacity="1.000000" stroke="none" 
	d="
M182.914307,116.668121 
	C182.393570,116.448051 181.936966,115.914604 181.783875,115.165184 
	C182.384399,115.417717 182.681412,115.886230 182.914307,116.668121 
z"/>
<path fill="#FBF1F2" opacity="1.000000" stroke="none" 
	d="
M53.005516,137.416733 
	C53.502876,137.600357 54.006611,138.091354 54.213089,138.818085 
	C53.614517,138.610596 53.313202,138.167358 53.005516,137.416733 
z"/>
<path fill="#FBF1F2" opacity="1.000000" stroke="none" 
	d="
M72.038498,157.380432 
	C72.528671,157.154099 73.111389,157.223846 73.800209,157.654724 
	C73.314552,157.902756 72.722801,157.789627 72.038498,157.380432 
z"/>
<path fill="#FBF1F2" opacity="1.000000" stroke="none" 
	d="
M71.314369,126.018333 
	C71.136391,125.617905 71.218605,125.153122 71.691643,124.871498 
	C71.913162,125.354431 71.743866,125.654205 71.314369,126.018333 
z"/>
<path fill="#FBF1F2" opacity="1.000000" stroke="none" 
	d="
M72.314575,125.018250 
	C72.136261,124.617424 72.218071,124.152229 72.691162,123.870926 
	C72.913185,124.354500 72.743942,124.654198 72.314575,125.018250 
z"/>
<path fill="#FBF1F2" opacity="1.000000" stroke="none" 
	d="
M53.980698,139.311768 
	C54.368595,139.139084 54.821224,139.227936 55.111610,139.700317 
	C54.648056,139.913666 54.346737,139.743469 53.980698,139.311768 
z"/>
<path fill="#FBF1F2" opacity="1.000000" stroke="none" 
	d="
M54.980762,140.311920 
	C55.369232,140.138916 55.822407,140.227386 56.112396,140.699829 
	C55.647961,140.913651 55.346718,140.743515 54.980762,140.311920 
z"/>
<path fill="#FBF1F2" opacity="1.000000" stroke="none" 
	d="
M55.980827,141.312073 
	C56.369549,141.138809 56.822968,141.226959 57.112766,141.699432 
	C56.647934,141.913666 56.346729,141.743576 55.980827,141.312073 
z"/>
<path fill="#FBF1F2" opacity="1.000000" stroke="none" 
	d="
M73.314713,124.018204 
	C73.136169,123.617134 73.217712,123.151703 73.690842,122.870575 
	C73.913216,123.354538 73.744003,123.654198 73.314713,124.018204 
z"/>
<path fill="#FBF1F2" opacity="1.000000" stroke="none" 
	d="
M56.980869,142.312149 
	C57.369564,142.138733 57.822956,142.226730 58.112759,142.699234 
	C57.647972,142.913681 57.346767,142.743622 56.980869,142.312149 
z"/>
<path fill="#FBF1F2" opacity="1.000000" stroke="none" 
	d="
M57.980888,143.312164 
	C58.369392,143.138733 58.822594,143.226700 59.112530,143.699234 
	C58.648037,143.913727 58.346813,143.743668 57.980888,143.312164 
z"/>
<path fill="#FBF1F2" opacity="1.000000" stroke="none" 
	d="
M58.980885,144.312134 
	C59.369141,144.138748 59.822094,144.226807 60.112206,144.699341 
	C59.648106,144.913727 59.346844,144.743652 58.980885,144.312134 
z"/>
<path fill="#FBF1F2" opacity="1.000000" stroke="none" 
	d="
M59.980869,145.312073 
	C60.368862,145.138779 60.821556,145.226990 61.111855,145.699509 
	C60.648163,145.913742 60.346867,145.743637 59.980869,145.312073 
z"/>
<path fill="#FBF1F2" opacity="1.000000" stroke="none" 
	d="
M60.980846,146.311996 
	C61.368599,146.138840 61.821056,146.227188 62.111526,146.699707 
	C61.648205,146.913742 61.346878,146.743622 60.980846,146.311996 
z"/>
<path fill="#FBF1F2" opacity="1.000000" stroke="none" 
	d="
M61.980820,147.311951 
	C62.368408,147.138901 62.820713,147.227402 63.111298,147.699890 
	C62.648232,147.913742 62.346882,147.743607 61.980820,147.311951 
z"/>
<path fill="#FBF1F2" opacity="1.000000" stroke="none" 
	d="
M62.980793,148.311890 
	C63.368374,148.138931 63.820671,148.227509 64.111267,148.699982 
	C63.648220,148.913727 63.346867,148.743576 62.980793,148.311890 
z"/>
<path fill="#FBF1F2" opacity="1.000000" stroke="none" 
	d="
M63.980774,149.311859 
	C64.368591,149.138931 64.821121,149.227539 65.111572,149.699982 
	C64.648155,149.913696 64.346817,149.743546 63.980774,149.311859 
z"/>
<path fill="#FBF1F2" opacity="1.000000" stroke="none" 
	d="
M64.980774,150.311859 
	C65.369141,150.138870 65.822205,150.227371 66.112289,150.699829 
	C65.648026,150.913635 65.346748,150.743500 64.980774,150.311859 
z"/>
<path fill="#FBF1F2" opacity="1.000000" stroke="none" 
	d="
M65.980789,151.311951 
	C66.369957,151.138763 66.823792,151.227005 67.113327,151.699463 
	C66.647842,151.913574 66.346657,151.743484 65.980789,151.311951 
z"/>
<path fill="#FBF1F2" opacity="1.000000" stroke="none" 
	d="
M66.980850,152.312103 
	C67.370880,152.138580 67.825554,152.226410 68.114487,152.698914 
	C67.647652,152.913544 67.346573,152.743500 66.980850,152.312103 
z"/>
<path fill="#FBF1F2" opacity="1.000000" stroke="none" 
	d="
M67.980934,153.312317 
	C68.371475,153.138428 68.826645,153.225784 69.115189,153.698334 
	C68.647568,153.913559 68.346565,153.743576 67.980934,153.312317 
z"/>
<path fill="#FBF1F2" opacity="1.000000" stroke="none" 
	d="
M68.980988,154.312469 
	C69.371819,154.138336 69.827278,154.225403 70.115608,154.697998 
	C69.647522,154.913559 69.346573,154.743607 68.980988,154.312469 
z"/>
<path fill="#FBF1F2" opacity="1.000000" stroke="none" 
	d="
M69.981033,155.312561 
	C70.372047,155.138275 70.827690,155.225143 71.115875,155.697754 
	C70.647499,155.913574 70.346581,155.743652 69.981033,155.312561 
z"/>
<path fill="#FBF1F2" opacity="1.000000" stroke="none" 
	d="
M70.981049,156.312607 
	C71.372223,156.138214 71.828011,156.224976 72.116089,156.697601 
	C71.647469,156.913574 71.346565,156.743668 70.981049,156.312607 
z"/>
<path fill="#FDF6F7" opacity="1.000000" stroke="none" 
	d="
M179.016815,111.688797 
	C178.623291,111.863701 178.162720,111.779099 177.876968,111.305359 
	C178.351120,111.087242 178.650452,111.258263 179.016815,111.688797 
z"/>
<path fill="#FDF6F7" opacity="1.000000" stroke="none" 
	d="
M166.016602,98.688171 
	C165.619324,98.864372 165.155136,98.781441 164.871979,98.307564 
	C165.351913,98.087425 165.650803,98.258224 166.016602,98.688171 
z"/>
<path fill="#FDF6F7" opacity="1.000000" stroke="none" 
	d="
M167.016647,99.688293 
	C166.619751,99.864326 166.155914,99.781166 165.872482,99.307297 
	C166.351822,99.087425 166.650772,99.258263 167.016647,99.688293 
z"/>
<path fill="#FDF6F7" opacity="1.000000" stroke="none" 
	d="
M168.016663,100.688370 
	C167.620178,100.864265 167.156754,100.780914 166.873016,100.307053 
	C167.351730,100.087410 167.650726,100.258263 168.016663,100.688370 
z"/>
<path fill="#FDF6F7" opacity="1.000000" stroke="none" 
	d="
M169.016663,101.688416 
	C168.620560,101.864227 168.157501,101.780746 167.873505,101.306900 
	C168.351624,101.087387 168.650665,101.258255 169.016663,101.688416 
z"/>
<path fill="#FDF6F7" opacity="1.000000" stroke="none" 
	d="
M170.016693,102.688477 
	C169.620819,102.864182 169.158005,102.780579 168.873840,102.306732 
	C169.351562,102.087387 169.650650,102.258278 170.016693,102.688477 
z"/>
<path fill="#FDF6F7" opacity="1.000000" stroke="none" 
	d="
M171.016724,103.688591 
	C170.621109,103.864105 170.158524,103.780266 169.874176,103.306458 
	C170.351517,103.087395 170.650650,103.258316 171.016724,103.688591 
z"/>
<path fill="#FDF6F7" opacity="1.000000" stroke="none" 
	d="
M172.016815,104.688812 
	C171.621552,104.863945 171.159332,104.779648 170.874695,104.305901 
	C171.351471,104.087433 171.650681,104.258408 172.016815,104.688812 
z"/>
<path fill="#FDF6F7" opacity="1.000000" stroke="none" 
	d="
M173.016846,105.688904 
	C172.622452,105.863838 172.161118,105.779259 171.875854,105.305527 
	C172.351257,105.087379 172.650574,105.258392 173.016846,105.688904 
z"/>
<path fill="#FDF6F7" opacity="1.000000" stroke="none" 
	d="
M174.016846,106.688934 
	C173.623138,106.863739 173.162445,106.778999 172.876740,106.305267 
	C173.351105,106.087318 173.650482,106.258347 174.016846,106.688934 
z"/>
<path fill="#FDF6F7" opacity="1.000000" stroke="none" 
	d="
M175.016830,107.688896 
	C174.623505,107.863701 174.163177,107.778954 173.877228,107.305214 
	C174.351013,107.087265 174.650421,107.258301 175.016830,107.688896 
z"/>
<path fill="#FDF6F7" opacity="1.000000" stroke="none" 
	d="
M176.016815,108.688843 
	C175.623550,108.863693 175.163269,108.778984 174.877304,108.305252 
	C175.351028,108.087234 175.650406,108.258263 176.016815,108.688843 
z"/>
<path fill="#FDF6F7" opacity="1.000000" stroke="none" 
	d="
M177.016815,109.688812 
	C176.623459,109.863693 176.163071,109.779037 175.877182,109.305298 
	C176.351059,109.087234 176.650421,109.258263 177.016815,109.688812 
z"/>
<path fill="#FDF6F7" opacity="1.000000" stroke="none" 
	d="
M178.016815,110.688812 
	C177.623322,110.863693 177.162811,110.779068 176.877014,110.305328 
	C177.351105,110.087250 177.650452,110.258270 178.016815,110.688812 
z"/>
<path fill="#FBF1F2" opacity="1.000000" stroke="none" 
	d="
M74.314781,123.018173 
	C74.136108,122.616982 74.217499,122.151451 74.690651,121.870407 
	C74.913223,122.354546 74.744034,122.654182 74.314781,123.018173 
z"/>
<path fill="#FBF1F2" opacity="1.000000" stroke="none" 
	d="
M84.314781,113.018150 
	C84.136093,112.617233 84.217484,112.151970 84.690643,111.870735 
	C84.913239,112.354446 84.744049,112.654121 84.314781,113.018150 
z"/>
<path fill="#FDF6F7" opacity="1.000000" stroke="none" 
	d="
M180.016815,112.688774 
	C179.623230,112.863716 179.162628,112.779160 178.876907,112.305420 
	C179.351120,112.087250 179.650452,112.258263 180.016815,112.688774 
z"/>
<path fill="#FBF1F2" opacity="1.000000" stroke="none" 
	d="
M83.314789,114.018158 
	C83.136086,113.617111 83.217461,113.151726 83.690628,112.870590 
	C83.913239,113.354500 83.744049,113.654160 83.314789,114.018158 
z"/>
<path fill="#FDF6F7" opacity="1.000000" stroke="none" 
	d="
M181.016800,113.688751 
	C180.623138,113.863747 180.162476,113.779266 179.876801,113.305504 
	C180.351135,113.087242 180.650467,113.258247 181.016800,113.688751 
z"/>
<path fill="#FBF1F2" opacity="1.000000" stroke="none" 
	d="
M82.314774,115.018150 
	C82.136063,114.617058 82.217415,114.151619 82.690582,113.870514 
	C82.913223,114.354500 82.744034,114.654152 82.314774,115.018150 
z"/>
<path fill="#FDF6F7" opacity="1.000000" stroke="none" 
	d="
M182.016815,114.688766 
	C181.622986,114.863747 181.162155,114.779236 180.876602,114.305489 
	C181.351196,114.087265 181.650497,114.258270 182.016815,114.688766 
z"/>
<path fill="#FBF1F2" opacity="1.000000" stroke="none" 
	d="
M81.314804,116.018143 
	C81.136055,115.617012 81.217369,115.151543 81.690544,114.870461 
	C81.913223,115.354500 81.744049,115.654144 81.314804,116.018143 
z"/>
<path fill="#FBF1F2" opacity="1.000000" stroke="none" 
	d="
M80.314835,117.018127 
	C80.136032,116.616943 80.217293,116.151413 80.690475,115.870377 
	C80.913231,116.354500 80.744057,116.654144 80.314835,117.018127 
z"/>
<path fill="#FBF1F2" opacity="1.000000" stroke="none" 
	d="
M79.314857,118.018127 
	C79.136024,117.616844 79.217232,117.151215 79.690414,116.870239 
	C79.913231,117.354530 79.744064,117.654160 79.314857,118.018127 
z"/>
<path fill="#FBF1F2" opacity="1.000000" stroke="none" 
	d="
M78.314857,119.018127 
	C78.136024,118.616753 78.217216,118.151024 78.690399,117.870125 
	C78.913223,118.354561 78.744057,118.654167 78.314857,119.018127 
z"/>
<path fill="#FBF1F2" opacity="1.000000" stroke="none" 
	d="
M77.314850,120.018143 
	C77.136047,119.616722 77.217278,119.150955 77.690445,118.870087 
	C77.913216,119.354584 77.744049,119.654190 77.314850,120.018143 
z"/>
<path fill="#FBF1F2" opacity="1.000000" stroke="none" 
	d="
M76.314819,121.018158 
	C76.136070,120.616768 76.217346,120.151047 76.690506,119.870148 
	C76.913208,120.354584 76.744034,120.654198 76.314819,121.018158 
z"/>
<path fill="#FBF1F2" opacity="1.000000" stroke="none" 
	d="
M75.314804,122.018158 
	C75.136093,121.616867 75.217422,121.151222 75.690575,120.870262 
	C75.913216,121.354568 75.744034,121.654190 75.314804,122.018158 
z"/>
</svg>